<?xml version="1.0" standalone="no"?>
<!DOCTYPE svg PUBLIC "-//W3C//DTD SVG 1.1//EN" "http://www.w3.org/Graphics/SVG/1.1/DTD/svg11.dtd" >
<svg xmlns="http://www.w3.org/2000/svg" xmlns:xlink="http://www.w3.org/1999/xlink" version="1.1">
<metadata>
Created by FontForge 20160407 at Wed Jul 27 19:14:38 2016
 By Jimmy Wärting
Copyright (c) 2013 by Mariya Pigoulevskaya. All rights reserved.
</metadata>
<defs>
<font id="Acrom-Regular" horiz-adv-x="664" >
  <font-face 
    font-family="Acrom"
    font-weight="400"
    font-stretch="normal"
    units-per-em="1000"
    panose-1="0 0 5 0 0 0 0 0 0 0"
    ascent="750"
    descent="-250"
    x-height="500"
    cap-height="700"
    bbox="0 -367 1235 986"
    underline-thickness="50"
    underline-position="-100"
    stemh="77"
    stemv="74"
    unicode-range="U+0020-25CA"
  />
<missing-glyph horiz-adv-x="500" 
d="M0 0v700h500v-700h-500zM250 395l170 255h-340zM280 350l170 -255v510zM80 50h340l-170 255zM50 605v-510l170 255z" />
    <glyph glyph-name=".notdef" horiz-adv-x="500" 
d="M0 0v700h500v-700h-500zM250 395l170 255h-340zM280 350l170 -255v510zM80 50h340l-170 255zM50 605v-510l170 255z" />
    <glyph glyph-name="A" unicode="A" horiz-adv-x="715" 
d="M208 186l-76 -186h-86l290 700h44l289 -700h-86l-76 186h-299zM358 556l-122 -297h244z" />
    <glyph glyph-name="Aacute" unicode="&#xc1;" horiz-adv-x="715" 
d="M379 750h-58l72 117h89zM669 0h-86l-76 186h-299l-76 -186h-86l290 700h44zM236 259h244l-122 297z" />
    <glyph glyph-name="Abreve" unicode="&#x102;" horiz-adv-x="715" 
d="M449 880h52c0 -75 -63 -130 -143 -130s-143 55 -143 130h53c0 -44 39 -77 90 -77s91 33 91 77zM669 0h-86l-76 186h-299l-76 -186h-86l290 700h44zM236 259h244l-122 297z" />
    <glyph glyph-name="Acaron" unicode="&#x1cd;" horiz-adv-x="715" 
d="M391 750h-67l-106 120h63l77 -63l76 64h63zM669 0h-86l-76 186h-299l-76 -186h-86l290 700h44zM236 259h244l-122 297z" />
    <glyph glyph-name="Acircumflex" unicode="&#xc2;" horiz-adv-x="715" 
d="M497 750h-63l-76 64l-77 -64h-63l106 121h67zM669 0h-86l-76 186h-299l-76 -186h-86l290 700h44zM236 259h244l-122 297z" />
    <glyph glyph-name="Adieresis" unicode="&#xc4;" horiz-adv-x="715" 
d="M255 750c-25 0 -45 18 -45 41s20 41 45 41s45 -18 45 -41s-20 -41 -45 -41zM463 750c-25 0 -45 18 -45 41s20 41 45 41s45 -18 45 -41s-20 -41 -45 -41zM208 186l-76 -186h-86l290 700h44l289 -700h-86l-76 186h-299zM358 556l-122 -297h244z" />
    <glyph glyph-name="Agrave" unicode="&#xc0;" horiz-adv-x="715" 
d="M398 750h-59l-102 117h88zM669 0h-86l-76 186h-299l-76 -186h-86l290 700h44zM236 259h244l-122 297z" />
    <glyph glyph-name="Amacron" unicode="&#x100;" horiz-adv-x="715" 
d="M484 750h-254v55h254v-55zM208 186l-76 -186h-86l290 700h44l289 -700h-86l-76 186h-299zM358 556l-122 -297h244z" />
    <glyph glyph-name="Aogonek" unicode="&#x104;" horiz-adv-x="715" 
d="M599 -68c0 -33 28 -49 60 -49h9v-47h-6c-50 0 -99 24 -99 79c0 38 26 66 78 85h-58l-76 186h-299l-76 -186h-86l290 700h44l289 -700c-52 -19 -70 -42 -70 -68zM480 259l-122 297l-122 -297h244z" />
    <glyph glyph-name="Aring" unicode="&#xc5;" horiz-adv-x="715" 
d="M357 916c46 0 83 -38 83 -83c0 -46 -37 -83 -83 -83s-82 37 -82 83c0 45 36 83 82 83zM357 876c-25 0 -41 -21 -41 -43c0 -23 16 -43 41 -43c24 0 42 20 42 43c0 22 -18 43 -42 43zM208 186l-76 -186h-86l290 700h44l289 -700h-86l-76 186h-299zM358 556l-122 -297h244z
" />
    <glyph glyph-name="Atilde" unicode="&#xc3;" horiz-adv-x="715" 
d="M507 850l-19 -51c-12 -38 -33 -57 -63 -58c-21 -1 -38 7 -52 19l-39 36c-11 9 -24 15 -37 14c-19 0 -29 -13 -36 -37l-7 -23h-39l19 51c12 38 33 57 62 59c22 1 39 -8 53 -20l39 -36c11 -9 22 -14 35 -14c20 0 30 13 38 38l8 22h38zM208 186l-76 -186h-86l290 700h44
l289 -700h-86l-76 186h-299zM358 556l-122 -297h244z" />
    <glyph glyph-name="AE" unicode="&#xc6;" horiz-adv-x="855" 
d="M433 390h344v-73h-344v-244h365v-73h-443v186h-147l-76 -186h-86l290 700h462v-73h-365v-237zM356 551l-120 -292h120v292z" />
    <glyph glyph-name="B" unicode="B" horiz-adv-x="692" 
d="M113 700h254c196 0 232 -99 232 -180c0 -73 -33 -129 -106 -153c92 -17 143 -84 143 -173c0 -112 -63 -194 -244 -194h-279v700zM191 627v-231h183c122 0 151 57 151 115s-21 116 -151 116h-183zM191 329v-256h215c117 0 156 53 156 128s-48 128 -156 128h-215z" />
    <glyph glyph-name="C" unicode="C" horiz-adv-x="746" 
d="M425 707c105 0 199 -45 264 -117l-51 -46c-54 56 -129 90 -213 90c-155 0 -278 -122 -278 -284c0 -163 123 -284 278 -284c84 0 159 33 213 90l51 -48c-65 -71 -159 -115 -264 -115c-197 0 -356 159 -356 357c0 197 159 357 356 357z" />
    <glyph glyph-name="Cacute" unicode="&#x106;" horiz-adv-x="746" 
d="M425 750h-58l72 117h89zM425 707c105 0 199 -45 264 -117l-51 -46c-54 56 -129 90 -213 90c-155 0 -278 -122 -278 -284c0 -163 123 -284 278 -284c84 0 159 33 213 90l51 -48c-65 -71 -159 -115 -264 -115c-197 0 -356 159 -356 357c0 197 159 357 356 357z" />
    <glyph glyph-name="Ccaron" unicode="&#x10c;" horiz-adv-x="746" 
d="M458 750h-67l-106 120h63l77 -63l76 64h63zM425 707c105 0 199 -45 264 -117l-51 -46c-54 56 -129 90 -213 90c-155 0 -278 -122 -278 -284c0 -163 123 -284 278 -284c84 0 159 33 213 90l51 -48c-65 -71 -159 -115 -264 -115c-197 0 -356 159 -356 357
c0 197 159 357 356 357z" />
    <glyph glyph-name="Ccedilla" unicode="&#xc7;" horiz-adv-x="746" 
d="M425 66c84 0 159 33 213 90l51 -48c-65 -71 -159 -115 -264 -115h-4l-9 -36c38 12 80 -6 80 -58c0 -54 -60 -84 -127 -44v27c38 -26 78 -13 78 18c0 29 -24 44 -69 25l19 69c-182 16 -324 169 -324 356c0 197 159 357 356 357c105 0 199 -45 264 -117l-51 -46
c-54 56 -129 90 -213 90c-155 0 -278 -122 -278 -284c0 -163 123 -284 278 -284z" />
    <glyph glyph-name="Cdotaccent" unicode="&#x10a;" horiz-adv-x="746" 
d="M425 832c25 0 45 -18 45 -41s-20 -41 -45 -41s-45 18 -45 41s20 41 45 41zM425 707c105 0 199 -45 264 -117l-51 -46c-54 56 -129 90 -213 90c-155 0 -278 -122 -278 -284c0 -163 123 -284 278 -284c84 0 159 33 213 90l51 -48c-65 -71 -159 -115 -264 -115
c-197 0 -356 159 -356 357c0 197 159 357 356 357z" />
    <glyph glyph-name="D" unicode="D" horiz-adv-x="758" 
d="M113 700h220c197 0 356 -142 356 -350c0 -209 -159 -350 -356 -350h-220v700zM191 73h142c155 0 278 103 278 277c0 173 -123 277 -278 277h-142v-554z" />
    <glyph glyph-name="Eth" unicode="&#xd0;" horiz-adv-x="825" 
d="M180 700h220c197 0 356 -142 356 -350c0 -209 -159 -350 -356 -350h-220v327h-67v48h67v325zM258 73h142c155 0 278 103 278 277c0 173 -123 277 -278 277h-142v-252h104v-48h-104v-254z" />
    <glyph glyph-name="Dcaron" unicode="&#x10e;" horiz-adv-x="758" 
d="M385 750h-67l-106 120h63l77 -63l76 64h63zM113 700h220c197 0 356 -142 356 -350c0 -209 -159 -350 -356 -350h-220v700zM191 627v-554h142c155 0 278 103 278 277c0 173 -123 277 -278 277h-142z" />
    <glyph glyph-name="Dcroat" unicode="&#x110;" horiz-adv-x="825" 
d="M180 700h220c197 0 356 -142 356 -350c0 -209 -159 -350 -356 -350h-220v327h-67v48h67v325zM258 73h142c155 0 278 103 278 277c0 173 -123 277 -278 277h-142v-252h104v-48h-104v-254z" />
    <glyph glyph-name="E" unicode="E" horiz-adv-x="612" 
d="M191 390h343v-73h-343v-244h365v-73h-443v700h443v-73h-365v-237z" />
    <glyph glyph-name="Eacute" unicode="&#xc9;" horiz-adv-x="612" 
d="M333 750h-58l72 117h89zM556 627h-365v-237h343v-73h-343v-244h365v-73h-443v700h443v-73z" />
    <glyph glyph-name="Ecaron" unicode="&#x11a;" horiz-adv-x="612" 
d="M367 750h-67l-106 120h63l77 -63l76 64h63zM556 627h-365v-237h343v-73h-343v-244h365v-73h-443v700h443v-73z" />
    <glyph glyph-name="Ecircumflex" unicode="&#xca;" horiz-adv-x="612" 
d="M473 750h-63l-76 64l-77 -64h-63l106 121h67zM556 627h-365v-237h343v-73h-343v-244h365v-73h-443v700h443v-73z" />
    <glyph glyph-name="Edieresis" unicode="&#xcb;" horiz-adv-x="612" 
d="M227 832c25 0 45 -18 45 -41s-20 -41 -45 -41s-45 18 -45 41s20 41 45 41zM435 832c25 0 45 -18 45 -41s-20 -41 -45 -41s-45 18 -45 41s20 41 45 41zM556 627h-365v-237h343v-73h-343v-244h365v-73h-443v700h443v-73z" />
    <glyph glyph-name="Edotaccent" unicode="&#x116;" horiz-adv-x="612" 
d="M329 832c25 0 45 -18 45 -41s-20 -41 -45 -41s-45 18 -45 41s20 41 45 41zM556 627h-365v-237h343v-73h-343v-244h365v-73h-443v700h443v-73z" />
    <glyph glyph-name="Egrave" unicode="&#xc8;" horiz-adv-x="612" 
d="M384 750h-59l-102 117h88zM556 627h-365v-237h343v-73h-343v-244h365v-73h-443v700h443v-73z" />
    <glyph glyph-name="Emacron" unicode="&#x112;" horiz-adv-x="612" 
d="M456 750h-254v55h254v-55zM556 627h-365v-237h343v-73h-343v-244h365v-73h-443v700h443v-73z" />
    <glyph glyph-name="Eogonek" unicode="&#x118;" horiz-adv-x="612" 
d="M191 627v-237h343v-73h-343v-244h365v-73h-1c-52 -19 -70 -42 -70 -68c0 -33 28 -49 60 -49h9v-47h-6c-50 0 -99 24 -99 79c0 38 26 66 78 85h-414v700h443v-73h-365z" />
    <glyph glyph-name="F" unicode="F" horiz-adv-x="612" 
d="M191 390h343v-73h-343v-317h-78v700h443v-73h-365v-237z" />
    <glyph glyph-name="G" unicode="G" horiz-adv-x="792" 
d="M425 707c105 0 199 -45 264 -117l-51 -47c-54 57 -129 91 -213 91c-155 0 -278 -122 -278 -284c0 -163 123 -284 278 -284c72 0 137 26 186 71v169h-192v61h270v-259c-65 -71 -159 -115 -264 -115c-197 0 -356 159 -356 357c0 197 159 357 356 357z" />
    <glyph glyph-name="Gbreve" unicode="&#x11e;" horiz-adv-x="792" 
d="M516 880h52c0 -75 -63 -130 -143 -130s-143 55 -143 130h53c0 -44 39 -77 90 -77s91 33 91 77zM425 707c105 0 199 -45 264 -117l-51 -47c-54 57 -129 91 -213 91c-155 0 -278 -122 -278 -284c0 -163 123 -284 278 -284c72 0 137 26 186 71v169h-192v61h270v-259
c-65 -71 -159 -115 -264 -115c-197 0 -356 159 -356 357c0 197 159 357 356 357z" />
    <glyph glyph-name="Gcommaaccent" unicode="&#x122;" horiz-adv-x="792" 
d="M425 707c105 0 199 -45 264 -117l-51 -47c-54 57 -129 91 -213 91c-155 0 -278 -122 -278 -284c0 -163 123 -284 278 -284c72 0 137 26 186 71v169h-192v61h270v-259c-65 -71 -159 -115 -264 -115c-197 0 -356 159 -356 357c0 197 159 357 356 357zM384 -186h-58l72 117
h89z" />
    <glyph glyph-name="Gdotaccent" unicode="&#x120;" horiz-adv-x="792" 
d="M425 832c25 0 45 -18 45 -41s-20 -41 -45 -41s-45 18 -45 41s20 41 45 41zM425 707c105 0 199 -45 264 -117l-51 -47c-54 57 -129 91 -213 91c-155 0 -278 -122 -278 -284c0 -163 123 -284 278 -284c72 0 137 26 186 71v169h-192v61h270v-259
c-65 -71 -159 -115 -264 -115c-197 0 -356 159 -356 357c0 197 159 357 356 357z" />
    <glyph glyph-name="H" unicode="H" horiz-adv-x="754" 
d="M642 0h-78v318h-373v-318h-78v700h78v-309h373v309h78v-700z" />
    <glyph glyph-name="Hbar" unicode="&#x126;" horiz-adv-x="925" 
d="M813 500h-86v-500h-78v318h-373v-318h-78v500h-85v48h85v152h78v-152l373 -1v153h78v-153h86v-47zM649 500h-373v-109h373v109z" />
    <glyph glyph-name="I" unicode="I" horiz-adv-x="468" 
d="M273 73h82v-73h-242v73h82v554h-82v73h242v-73h-82v-554z" />
    <glyph glyph-name="IJ" unicode="&#x132;" horiz-adv-x="915" 
d="M355 627h-82v-554h82v-73h-242v73h82v554h-82v73h242v-73zM846 700v-462c0 -157 -91 -245 -230 -245s-229 88 -229 245v29h78v-38c0 -98 54 -163 151 -163c98 0 152 65 152 163v398h-240v73h318z" />
    <glyph glyph-name="Iacute" unicode="&#xcd;" horiz-adv-x="468" 
d="M232 750h-58l72 117h89zM355 627h-82v-554h82v-73h-242v73h82v554h-82v73h242v-73z" />
    <glyph glyph-name="Icaron" unicode="&#x1cf;" horiz-adv-x="516" 
d="M292 750h-67l-106 120h63l77 -63l76 64h63zM379 627h-82v-554h82v-73h-242v73h82v554h-82v73h242v-73z" />
    <glyph glyph-name="Icircumflex" unicode="&#xce;" horiz-adv-x="516" 
d="M398 750h-63l-76 64l-77 -64h-63l106 121h67zM379 627h-82v-554h82v-73h-242v73h82v554h-82v73h242v-73z" />
    <glyph glyph-name="Idieresis" unicode="&#xcf;" horiz-adv-x="523" 
d="M158 832c25 0 45 -18 45 -41s-20 -41 -45 -41s-45 18 -45 41s20 41 45 41zM365 832c25 0 45 -18 45 -41s-20 -41 -45 -41s-45 18 -45 41s20 41 45 41zM382 627h-82v-554h82v-73h-242v73h82v554h-82v73h242v-73z" />
    <glyph glyph-name="Idotaccent" unicode="&#x130;" horiz-adv-x="468" 
d="M235 750c-25 0 -45 18 -45 41s20 41 45 41s45 -18 45 -41s-20 -41 -45 -41zM273 73h82v-73h-242v73h82v554h-82v73h242v-73h-82v-554z" />
    <glyph glyph-name="Igrave" unicode="&#xcc;" horiz-adv-x="468" 
d="M218 867l73 -117h-59l-102 117h88zM273 73h82v-73h-242v73h82v554h-82v73h242v-73h-82v-554z" />
    <glyph glyph-name="Imacron" unicode="&#x12a;" horiz-adv-x="510" 
d="M381 750h-254v55h254v-55zM294 73h82v-73h-242v73h82v554h-82v73h242v-73h-82v-554z" />
    <glyph glyph-name="Iogonek" unicode="&#x12e;" horiz-adv-x="468" 
d="M273 627v-554h82v-73c-52 -19 -70 -42 -70 -68c0 -33 28 -49 60 -49h9v-47h-6c-50 0 -99 24 -99 79c0 38 26 66 78 85h-214v73h82v554h-82v73h242v-73h-82z" />
    <glyph glyph-name="J" unicode="J" horiz-adv-x="597" 
d="M528 700v-462c0 -157 -91 -245 -230 -245s-229 88 -229 245v29h78v-38c0 -98 54 -163 151 -163c98 0 152 65 152 163v398h-240v73h318z" />
    <glyph glyph-name="K" unicode="K" horiz-adv-x="718" 
d="M583 0l-142 222c-47 71 -65 97 -136 97h-114v-319h-78v700h78v-307h103c72 0 89 25 136 97l135 210h89l-154 -237c-41 -61 -64 -90 -94 -104c37 -12 61 -41 105 -110l161 -249h-89z" />
    <glyph glyph-name="Kcommaaccent" unicode="&#x136;" horiz-adv-x="718" 
d="M654 700l-154 -237c-41 -61 -64 -90 -94 -104c37 -12 61 -41 105 -110l161 -249h-89l-142 222c-47 71 -65 97 -136 97h-114v-319h-78v700h78v-307h103c72 0 89 25 136 97l135 210h89zM322 -186h-58l72 117h89z" />
    <glyph glyph-name="L" unicode="L" horiz-adv-x="596" 
d="M549 0h-436v700h78v-627h358v-73z" />
    <glyph glyph-name="Lacute" unicode="&#x139;" horiz-adv-x="596" 
d="M328 750h-58l72 117h89zM549 0h-436v700h78v-627h358v-73z" />
    <glyph glyph-name="Lcaron" unicode="&#x13d;" horiz-adv-x="596" 
d="M549 0h-436v700h78v-627h358v-73zM447 583h-58l72 117h89z" />
    <glyph glyph-name="Lcommaaccent" unicode="&#x13b;" horiz-adv-x="596" 
d="M549 0h-436v700h78v-627h358v-73zM285 -186h-58l72 117h89z" />
    <glyph glyph-name="Ldot" unicode="&#x13f;" horiz-adv-x="596" 
d="M549 0h-436v700h78v-627h358v-73zM501 289c-28 0 -48 22 -48 48c0 25 20 47 48 47s48 -22 48 -47c0 -26 -20 -48 -48 -48z" />
    <glyph glyph-name="Lslash" unicode="&#x141;" horiz-adv-x="655" 
d="M608 73v-73h-436v391l-59 -26v49l59 26v260h78v-226l59 26v-49l-59 -26v-352h358z" />
    <glyph glyph-name="M" unicode="M" horiz-adv-x="893" 
d="M781 0h-78v550l-261 -332l-261 332v-550h-78v700h44l295 -376l295 376h44v-700z" />
    <glyph glyph-name="N" unicode="N" horiz-adv-x="736" 
d="M633 0h-43l-409 547v-547h-78v700h44l408 -547v547h78v-700z" />
    <glyph glyph-name="Nacute" unicode="&#x143;" horiz-adv-x="736" 
d="M370 750h-58l72 117h89zM633 0h-43l-409 547v-547h-78v700h44l408 -547v547h78v-700z" />
    <glyph glyph-name="Ncaron" unicode="&#x147;" horiz-adv-x="736" 
d="M361 806l76 64h63l-106 -120h-67l-106 121h63zM633 0h-43l-409 547v-547h-78v700h44l408 -547v547h78v-700z" />
    <glyph glyph-name="Ncommaaccent" unicode="&#x145;" horiz-adv-x="736" 
d="M633 0h-43l-409 547v-547h-78v700h44l408 -547v547h78v-700zM328 -186h-58l72 117h89z" />
    <glyph glyph-name="Eng" unicode="&#x14a;" horiz-adv-x="736" 
d="M633 700v-684c0 -146 -86 -213 -199 -206l-13 1l1 65h9c71 0 130 24 130 136v26l-380 509v-547h-78v700h44l408 -547v547h78z" />
    <glyph glyph-name="Ntilde" unicode="&#xd1;" horiz-adv-x="736" 
d="M305 860c22 1 39 -8 53 -20l39 -36c11 -9 22 -14 35 -14c20 0 30 13 38 38l8 22h38l-19 -51c-12 -38 -33 -57 -63 -58c-21 -1 -38 7 -52 19l-39 36c-11 9 -24 15 -37 14c-19 0 -29 -13 -36 -37l-7 -23h-39l19 51c12 38 33 57 62 59zM633 0h-43l-409 547v-547h-78v700h44
l408 -547v547h78v-700z" />
    <glyph glyph-name="O" unicode="O" horiz-adv-x="851" 
d="M425 707c197 0 357 -160 357 -357c0 -198 -160 -357 -357 -357s-356 159 -356 357c0 197 159 357 356 357zM425 634c-155 0 -278 -122 -278 -284c0 -163 123 -284 278 -284s279 121 279 284c0 162 -124 284 -279 284z" />
    <glyph glyph-name="Oacute" unicode="&#xd3;" horiz-adv-x="851" 
d="M432 750h-58l72 117h89zM425 707c197 0 357 -160 357 -357c0 -198 -160 -357 -357 -357s-356 159 -356 357c0 197 159 357 356 357zM425 634c-155 0 -278 -122 -278 -284c0 -163 123 -284 278 -284s279 121 279 284c0 162 -124 284 -279 284z" />
    <glyph glyph-name="Ocaron" unicode="&#x1d1;" horiz-adv-x="851" 
d="M459 750h-67l-106 120h63l77 -64l76 64h63zM425 707c197 0 357 -160 357 -357c0 -198 -160 -357 -357 -357s-356 159 -356 357c0 197 159 357 356 357zM425 634c-155 0 -278 -122 -278 -284c0 -163 123 -284 278 -284s279 121 279 284c0 162 -124 284 -279 284z" />
    <glyph glyph-name="Ocircumflex" unicode="&#xd4;" horiz-adv-x="851" 
d="M565 750h-63l-76 64l-77 -64h-63l106 120h67zM425 707c197 0 357 -160 357 -357c0 -198 -160 -357 -357 -357s-356 159 -356 357c0 197 159 357 356 357zM425 634c-155 0 -278 -122 -278 -284c0 -163 123 -284 278 -284s279 121 279 284c0 162 -124 284 -279 284z" />
    <glyph glyph-name="Odieresis" unicode="&#xd6;" horiz-adv-x="851" 
d="M322 750c-25 0 -45 18 -45 41s20 41 45 41s45 -18 45 -41s-20 -41 -45 -41zM530 750c-25 0 -45 18 -45 41s20 41 45 41s45 -18 45 -41s-20 -41 -45 -41zM425 707c197 0 357 -160 357 -357c0 -198 -160 -357 -357 -357s-356 159 -356 357c0 197 159 357 356 357zM425 634
c-155 0 -278 -122 -278 -284c0 -163 123 -284 278 -284s279 121 279 284c0 162 -124 284 -279 284z" />
    <glyph glyph-name="Ograve" unicode="&#xd2;" horiz-adv-x="851" 
d="M401 867l73 -117h-59l-102 117h88zM425 707c197 0 357 -160 357 -357c0 -198 -160 -357 -357 -357s-356 159 -356 357c0 197 159 357 356 357zM425 634c-155 0 -278 -122 -278 -284c0 -163 123 -284 278 -284s279 121 279 284c0 162 -124 284 -279 284z" />
    <glyph glyph-name="Ohungarumlaut" unicode="&#x150;" horiz-adv-x="851" 
d="M373 750h-58l72 117h89zM510 750h-58l72 117h89zM425 707c197 0 357 -160 357 -357c0 -198 -160 -357 -357 -357s-356 159 -356 357c0 197 159 357 356 357zM425 634c-155 0 -278 -122 -278 -284c0 -163 123 -284 278 -284s279 121 279 284c0 162 -124 284 -279 284z" />
    <glyph glyph-name="Omacron" unicode="&#x14c;" horiz-adv-x="851" 
d="M553 750h-254v55h254v-55zM425 707c197 0 357 -160 357 -357c0 -198 -160 -357 -357 -357s-356 159 -356 357c0 197 159 357 356 357zM425 634c-155 0 -278 -122 -278 -284c0 -163 123 -284 278 -284s279 121 279 284c0 162 -124 284 -279 284z" />
    <glyph glyph-name="Oslash" unicode="&#xd8;" horiz-adv-x="851" 
d="M782 700l-98 -104c61 -64 98 -151 98 -246c0 -198 -160 -357 -357 -357c-88 0 -168 32 -230 84l-73 -77h-53l98 104c-61 64 -98 150 -98 246c0 197 159 357 356 357c88 0 168 -32 231 -85l73 78h53zM147 350c0 -76 27 -143 71 -192l387 411c-48 41 -111 65 -180 65
c-155 0 -278 -122 -278 -284zM704 350c0 75 -27 142 -71 192l-388 -411c49 -41 111 -65 180 -65c155 0 279 121 279 284z" />
    <glyph glyph-name="Otilde" unicode="&#xd5;" horiz-adv-x="851" 
d="M571 850l-19 -51c-12 -38 -33 -57 -63 -58c-21 -1 -38 7 -52 19l-39 36c-11 9 -24 15 -37 14c-19 0 -29 -13 -36 -37l-7 -23h-39l19 51c12 38 33 57 62 59c22 1 39 -8 53 -20l39 -36c11 -9 22 -14 35 -14c20 0 30 13 38 38l8 22h38zM425 707c197 0 357 -160 357 -357
c0 -198 -160 -357 -357 -357s-356 159 -356 357c0 197 159 357 356 357zM425 634c-155 0 -278 -122 -278 -284c0 -163 123 -284 278 -284s279 121 279 284c0 162 -124 284 -279 284z" />
    <glyph glyph-name="OE" unicode="&#x152;" horiz-adv-x="1203" 
d="M782 390h343v-73h-343v-244h365v-73h-443v162c-50 -100 -156 -169 -279 -169c-197 0 -356 159 -356 357c0 197 159 357 356 357c123 0 229 -70 279 -169v162h443v-73h-365v-237zM425 66c155 0 279 121 279 284c0 162 -124 284 -279 284s-278 -122 -278 -284
c0 -163 123 -284 278 -284z" />
    <glyph glyph-name="P" unicode="P" horiz-adv-x="709" 
d="M113 700h221c178 0 306 -96 306 -257c0 -162 -128 -257 -306 -257h-143v-186h-78v700zM191 259h148c121 0 227 54 227 184c0 128 -106 184 -227 184h-148v-368z" />
    <glyph glyph-name="Thorn" unicode="&#xde;" horiz-adv-x="709" 
d="M191 617h143c178 0 306 -96 306 -257c0 -162 -128 -257 -306 -257h-143v-103h-78v700h78v-83zM191 176h148c121 0 227 54 227 184c0 128 -106 184 -227 184h-148v-368z" />
    <glyph glyph-name="Q" unicode="Q" horiz-adv-x="869" 
d="M425 707c197 0 357 -160 357 -357c0 -126 -72 -234 -175 -284h193v-73h-375c-197 0 -356 159 -356 357c0 197 159 357 356 357zM425 634c-155 0 -278 -122 -278 -284c0 -163 123 -284 278 -284s279 121 279 284c0 162 -124 284 -279 284z" />
    <glyph glyph-name="R" unicode="R" horiz-adv-x="693" 
d="M113 700h225c178 0 302 -96 302 -252c0 -117 -72 -194 -179 -225c38 -16 73 -49 116 -116l70 -107h-89l-57 89c-59 91 -92 106 -167 107h-143v-196h-78v700zM191 627v-358h153c121 0 222 54 222 179c0 123 -101 179 -222 179h-153z" />
    <glyph glyph-name="Racute" unicode="&#x154;" horiz-adv-x="693" 
d="M339 750h-58l72 117h89zM113 700h225c178 0 302 -96 302 -252c0 -117 -72 -194 -179 -225c38 -16 73 -49 116 -116l70 -107h-89l-57 89c-59 91 -92 106 -167 107h-143v-196h-78v700zM191 627v-358h153c121 0 222 54 222 179c0 123 -101 179 -222 179h-153z" />
    <glyph glyph-name="Rcaron" unicode="&#x158;" horiz-adv-x="693" 
d="M387 750h-67l-106 120h63l77 -63l76 64h63zM113 700h225c178 0 302 -96 302 -252c0 -117 -72 -194 -179 -225c38 -16 73 -49 116 -116l70 -107h-89l-57 89c-59 91 -92 106 -167 107h-143v-196h-78v700zM191 627v-358h153c121 0 222 54 222 179c0 123 -101 179 -222 179
h-153z" />
    <glyph glyph-name="Rcommaaccent" unicode="&#x156;" horiz-adv-x="693" 
d="M113 700h225c178 0 302 -96 302 -252c0 -117 -72 -194 -179 -225c38 -16 73 -49 116 -116l70 -107h-89l-57 89c-59 91 -92 106 -167 107h-143v-196h-78v700zM191 627v-358h153c121 0 222 54 222 179c0 123 -101 179 -222 179h-153zM306 -186h-58l72 117h89z" />
    <glyph glyph-name="S" unicode="S" horiz-adv-x="658" 
d="M314 707h11c99 0 194 -44 253 -117l-51 -46c-49 57 -129 90 -202 90h-11c-74 0 -163 -39 -163 -122c0 -61 49 -91 150 -104l76 -10c141 -18 225 -72 225 -199c0 -126 -117 -205 -258 -206h-6c-139 0 -238 64 -282 152l51 47c32 -71 112 -126 231 -126h6
c99 0 180 50 180 133c0 79 -56 113 -156 127l-76 9c-141 18 -219 70 -219 175c0 121 113 196 241 197z" />
    <glyph glyph-name="Sacute" unicode="&#x15a;" horiz-adv-x="658" 
d="M324 750h-58l72 117h89zM314 707h11c99 0 194 -44 253 -117l-51 -46c-49 57 -129 90 -202 90h-11c-74 0 -163 -39 -163 -122c0 -61 49 -91 150 -104l76 -10c141 -18 225 -72 225 -199c0 -126 -117 -205 -258 -206h-6c-139 0 -238 64 -282 152l51 47
c32 -71 112 -126 231 -126h6c99 0 180 50 180 133c0 79 -56 113 -156 127l-76 9c-141 18 -219 70 -219 175c0 121 113 196 241 197z" />
    <glyph glyph-name="Scaron" unicode="&#x160;" horiz-adv-x="658" 
d="M355 750h-67l-106 120h63l77 -63l76 64h63zM314 707h11c99 0 194 -44 253 -117l-51 -46c-49 57 -129 90 -202 90h-11c-74 0 -163 -39 -163 -122c0 -61 49 -91 150 -104l76 -10c141 -18 225 -72 225 -199c0 -126 -117 -205 -258 -206h-6c-139 0 -238 64 -282 152l51 47
c32 -71 112 -126 231 -126h6c99 0 180 50 180 133c0 79 -56 113 -156 127l-76 9c-141 18 -219 70 -219 175c0 121 113 196 241 197z" />
    <glyph glyph-name="Scedilla" unicode="&#x15e;" horiz-adv-x="658" 
d="M340 -7l-9 -36c38 12 80 -6 80 -58c0 -54 -60 -84 -127 -44v27c38 -26 78 -13 78 18c0 29 -24 44 -69 25l19 69c-125 7 -215 69 -256 151l51 47c32 -71 112 -126 231 -126h6c99 0 180 50 180 133c0 79 -56 113 -156 127l-76 9c-141 18 -219 70 -219 175
c0 121 113 196 241 197h11c99 0 194 -44 253 -117l-51 -46c-49 57 -129 90 -202 90h-11c-74 0 -163 -39 -163 -122c0 -61 49 -91 150 -104l76 -10c141 -18 225 -72 225 -199c0 -126 -117 -205 -258 -206h-4z" />
    <glyph glyph-name="Scommaaccent" unicode="&#x218;" horiz-adv-x="658" 
d="M314 707h11c99 0 194 -44 253 -117l-51 -46c-49 57 -129 90 -202 90h-11c-74 0 -163 -39 -163 -122c0 -61 49 -91 150 -104l76 -10c141 -18 225 -72 225 -199c0 -126 -117 -205 -258 -206h-6c-139 0 -238 64 -282 152l51 47c32 -71 112 -126 231 -126h6
c99 0 180 50 180 133c0 79 -56 113 -156 127l-76 9c-141 18 -219 70 -219 175c0 121 113 196 241 197zM300 -186h-58l72 117h89z" />
    <glyph glyph-name="T" unicode="T" horiz-adv-x="604" 
d="M341 627v-627h-78v627h-217v73h511v-73h-216z" />
    <glyph glyph-name="Tbar" unicode="&#x166;" horiz-adv-x="604" 
d="M341 627v-232h88v-55h-88v-340h-78v340h-88v55h88v232h-217v73h511v-73h-216z" />
    <glyph glyph-name="Tcaron" unicode="&#x164;" horiz-adv-x="604" 
d="M336 750h-67l-106 120h63l77 -63l76 64h63zM341 627v-627h-78v627h-217v73h511v-73h-216z" />
    <glyph glyph-name="Tcedilla" unicode="&#x162;" horiz-adv-x="604" 
d="M312 0l-11 -43c38 12 80 -6 80 -58c0 -54 -60 -84 -127 -44v27c38 -26 78 -13 78 18c0 29 -24 44 -69 25l21 75h-21v627h-217v73h511v-73h-216v-627h-29z" />
    <glyph glyph-name="uni021A" unicode="&#x21a;" horiz-adv-x="604" 
d="M341 627v-627h-78v627h-217v73h511v-73h-216zM272 -186h-58l72 117h89z" />
    <glyph glyph-name="U" unicode="U" horiz-adv-x="786" 
d="M683 700v-399c0 -191 -118 -308 -285 -308c-168 0 -285 117 -285 308v399h78v-397c0 -153 81 -237 207 -237s207 84 207 237v397h78z" />
    <glyph glyph-name="Uacute" unicode="&#xda;" horiz-adv-x="786" 
d="M402 750h-58l72 117h89zM683 700v-399c0 -191 -118 -308 -285 -308c-168 0 -285 117 -285 308v399h78v-397c0 -153 81 -237 207 -237s207 84 207 237v397h78z" />
    <glyph glyph-name="Ucaron" unicode="&#x1d3;" horiz-adv-x="786" 
d="M431 750h-67l-106 120h63l77 -63l76 64h63zM683 700v-399c0 -191 -118 -308 -285 -308c-168 0 -285 117 -285 308v399h78v-397c0 -153 81 -237 207 -237s207 84 207 237v397h78z" />
    <glyph glyph-name="Ucircumflex" unicode="&#xdb;" horiz-adv-x="786" 
d="M474 750l-76 64l-77 -64h-63l106 121h67l106 -121h-63zM683 700v-399c0 -191 -118 -308 -285 -308c-168 0 -285 117 -285 308v399h78v-397c0 -153 81 -237 207 -237s207 84 207 237v397h78z" />
    <glyph glyph-name="Udieresis" unicode="&#xdc;" horiz-adv-x="786" 
d="M295 750c-25 0 -45 18 -45 41s20 41 45 41s45 -18 45 -41s-20 -41 -45 -41zM503 750c-25 0 -45 18 -45 41s20 41 45 41s45 -18 45 -41s-20 -41 -45 -41zM683 700v-399c0 -191 -118 -308 -285 -308c-168 0 -285 117 -285 308v399h78v-397c0 -153 81 -237 207 -237
s207 84 207 237v397h78z" />
    <glyph glyph-name="Udieresisacute" unicode="&#x1d7;" horiz-adv-x="786" 
d="M402 865h-58l72 117h89zM295 750c-25 0 -45 18 -45 41s20 41 45 41s45 -18 45 -41s-20 -41 -45 -41zM503 750c-25 0 -45 18 -45 41s20 41 45 41s45 -18 45 -41s-20 -41 -45 -41zM683 700v-399c0 -191 -118 -308 -285 -308c-168 0 -285 117 -285 308v399h78v-397
c0 -153 81 -237 207 -237s207 84 207 237v397h78z" />
    <glyph glyph-name="Udieresiscaron" unicode="&#x1d9;" horiz-adv-x="786" 
d="M398 921l76 64h63l-106 -120h-67l-106 121h63zM295 832c25 0 45 -18 45 -41s-20 -41 -45 -41s-45 18 -45 41s20 41 45 41zM503 832c25 0 45 -18 45 -41s-20 -41 -45 -41s-45 18 -45 41s20 41 45 41zM683 700v-399c0 -191 -118 -308 -285 -308c-168 0 -285 117 -285 308
v399h78v-397c0 -153 81 -237 207 -237s207 84 207 237v397h78z" />
    <glyph glyph-name="Udieresisgrave" unicode="&#x1db;" horiz-adv-x="786" 
d="M378 982l73 -117h-59l-102 117h88zM295 750c-25 0 -45 18 -45 41s20 41 45 41s45 -18 45 -41s-20 -41 -45 -41zM503 750c-25 0 -45 18 -45 41s20 41 45 41s45 -18 45 -41s-20 -41 -45 -41zM683 700v-399c0 -191 -118 -308 -285 -308c-168 0 -285 117 -285 308v399h78
v-397c0 -153 81 -237 207 -237s207 84 207 237v397h78z" />
    <glyph glyph-name="Udieresismacron" unicode="&#x1d5;" horiz-adv-x="786" 
d="M525 865h-254v55h254v-55zM295 750c-25 0 -45 18 -45 41s20 41 45 41s45 -18 45 -41s-20 -41 -45 -41zM503 750c-25 0 -45 18 -45 41s20 41 45 41s45 -18 45 -41s-20 -41 -45 -41zM683 700v-399c0 -191 -118 -308 -285 -308c-168 0 -285 117 -285 308v399h78v-397
c0 -153 81 -237 207 -237s207 84 207 237v397h78z" />
    <glyph glyph-name="Ugrave" unicode="&#xd9;" horiz-adv-x="786" 
d="M376 867l73 -117h-59l-102 117h88zM683 700v-399c0 -191 -118 -308 -285 -308c-168 0 -285 117 -285 308v399h78v-397c0 -153 81 -237 207 -237s207 84 207 237v397h78z" />
    <glyph glyph-name="Uhungarumlaut" unicode="&#x170;" horiz-adv-x="786" 
d="M316 750h-58l72 117h89zM453 750h-58l72 117h89zM683 700v-399c0 -191 -118 -308 -285 -308c-168 0 -285 117 -285 308v399h78v-397c0 -153 81 -237 207 -237s207 84 207 237v397h78z" />
    <glyph glyph-name="Umacron" unicode="&#x16a;" horiz-adv-x="786" 
d="M525 750h-254v55h254v-55zM683 700v-399c0 -191 -118 -308 -285 -308c-168 0 -285 117 -285 308v399h78v-397c0 -153 81 -237 207 -237s207 84 207 237v397h78z" />
    <glyph glyph-name="Uogonek" unicode="&#x172;" horiz-adv-x="786" 
d="M683 700v-399c0 -168 -92 -279 -228 -303c-47 -19 -64 -41 -64 -66c0 -33 28 -49 60 -49h9v-47h-6c-50 0 -99 24 -99 79c0 34 21 60 62 79l-19 -1c-168 0 -285 117 -285 308v399h78v-397c0 -153 81 -237 207 -237s207 84 207 237v397h78z" />
    <glyph glyph-name="Uring" unicode="&#x16e;" horiz-adv-x="786" 
d="M397 916c46 0 83 -38 83 -83c0 -46 -37 -83 -83 -83s-82 37 -82 83c0 45 36 83 82 83zM398 876c-25 0 -41 -21 -41 -43c0 -23 16 -43 41 -43c24 0 42 20 42 43c0 22 -18 43 -42 43zM683 700v-399c0 -191 -118 -308 -285 -308c-168 0 -285 117 -285 308v399h78v-397
c0 -153 81 -237 207 -237s207 84 207 237v397h78z" />
    <glyph glyph-name="V" unicode="V" horiz-adv-x="722" 
d="M383 0h-43l-294 700h86l229 -555l228 555h86z" />
    <glyph glyph-name="W" unicode="W" horiz-adv-x="1178" 
d="M854 0h-44l-221 541l-222 -541h-43l-278 700h86l213 -554l222 554h44l222 -554l213 554h85z" />
    <glyph glyph-name="Wacute" unicode="&#x1e82;" horiz-adv-x="1178" 
d="M593 750h-58l72 117h89zM854 0h-44l-221 541l-222 -541h-43l-278 700h86l213 -554l222 554h44l222 -554l213 554h85z" />
    <glyph glyph-name="Wcircumflex" unicode="&#x174;" horiz-adv-x="1178" 
d="M665 750l-76 64l-77 -64h-63l106 121h67l106 -121h-63zM854 0h-44l-221 541l-222 -541h-43l-278 700h86l213 -554l222 554h44l222 -554l213 554h85z" />
    <glyph glyph-name="Wdieresis" unicode="&#x1e84;" horiz-adv-x="1178" 
d="M485 750c-25 0 -45 18 -45 41s20 41 45 41s45 -18 45 -41s-20 -41 -45 -41zM693 750c-25 0 -45 18 -45 41s20 41 45 41s45 -18 45 -41s-20 -41 -45 -41zM854 0h-44l-221 541l-222 -541h-43l-278 700h86l213 -554l222 554h44l222 -554l213 554h85z" />
    <glyph glyph-name="Wgrave" unicode="&#x1e80;" horiz-adv-x="1178" 
d="M569 867l73 -117h-59l-102 117h88zM854 0h-44l-221 541l-222 -541h-43l-278 700h86l213 -554l222 554h44l222 -554l213 554h85z" />
    <glyph glyph-name="X" unicode="X" horiz-adv-x="688" 
d="M343 291l-207 -291h-90l253 361l-240 339h90l196 -272l193 272h91l-241 -343l253 -357h-90z" />
    <glyph glyph-name="Y" unicode="Y" horiz-adv-x="704" 
d="M390 0h-78v240l-266 460h89l217 -366l216 366h89l-267 -460v-240z" />
    <glyph glyph-name="Yacute" unicode="&#xdd;" horiz-adv-x="704" 
d="M357 750h-58l72 117h89zM390 0h-78v240l-266 460h89l217 -366l216 366h89l-267 -460v-240z" />
    <glyph glyph-name="Ycircumflex" unicode="&#x176;" horiz-adv-x="704" 
d="M428 750l-76 64l-77 -64h-63l106 121h67l106 -121h-63zM390 0h-78v240l-266 460h89l217 -366l216 366h89l-267 -460v-240z" />
    <glyph glyph-name="Ydieresis" unicode="&#x178;" horiz-adv-x="704" 
d="M248 750c-25 0 -45 18 -45 41s20 41 45 41s45 -18 45 -41s-20 -41 -45 -41zM456 750c-25 0 -45 18 -45 41s20 41 45 41s45 -18 45 -41s-20 -41 -45 -41zM390 0h-78v240l-266 460h89l217 -366l216 366h89l-267 -460v-240z" />
    <glyph glyph-name="Ygrave" unicode="&#x1ef2;" horiz-adv-x="704" 
d="M327 867l73 -117h-59l-102 117h88zM390 0h-78v240l-266 460h89l217 -366l216 366h89l-267 -460v-240z" />
    <glyph glyph-name="Z" unicode="Z" horiz-adv-x="628" 
d="M572 0h-516v42l397 585h-364v73h475v-43l-397 -584h405v-73z" />
    <glyph glyph-name="Zacute" unicode="&#x179;" horiz-adv-x="628" 
d="M312 750h-58l72 117h89zM572 0h-516v42l397 585h-364v73h475v-43l-397 -584h405v-73z" />
    <glyph glyph-name="Zcaron" unicode="&#x17d;" horiz-adv-x="628" 
d="M350 750h-67l-106 120h63l77 -63l76 64h63zM572 0h-516v42l397 585h-364v73h475v-43l-397 -584h405v-73z" />
    <glyph glyph-name="Zdotaccent" unicode="&#x17b;" horiz-adv-x="628" 
d="M311 750c-25 0 -45 18 -45 41s20 41 45 41s45 -18 45 -41s-20 -41 -45 -41zM572 0h-516v42l397 585h-364v73h475v-43l-397 -584h405v-73z" />
    <glyph glyph-name="K.ss01" horiz-adv-x="708" 
d="M191 319v-319h-78v700h78v-307h157l216 307h90l-240 -344l248 -356h-90l-225 319h-156z" />
    <glyph glyph-name="Kcommaaccent.ss01" horiz-adv-x="708" 
d="M191 319v-319h-78v700h78v-307h157l216 307h90l-240 -344l248 -356h-90l-225 319h-156zM325 -186h-58l72 117h89z" />
    <glyph glyph-name="R.ss01" horiz-adv-x="692" 
d="M113 700h226c180 0 301 -96 301 -252c0 -118 -71 -198 -179 -232l181 -216h-90l-168 200c-14 -2 -28 -4 -43 -4h-150v-196h-78v700zM191 627v-358h154c121 0 221 54 221 179c0 123 -100 179 -221 179h-154z" />
    <glyph glyph-name="Racute.ss01" horiz-adv-x="692" 
d="M340 750h-58l72 117h89zM113 700h226c180 0 301 -96 301 -252c0 -118 -71 -198 -179 -232l181 -216h-90l-168 200c-14 -2 -28 -4 -43 -4h-150v-196h-78v700zM191 627v-358h154c121 0 221 54 221 179c0 123 -100 179 -221 179h-154z" />
    <glyph glyph-name="Rcaron.ss01" horiz-adv-x="692" 
d="M362 750h-67l-106 120h63l77 -63l76 64h63zM113 700h226c180 0 301 -96 301 -252c0 -118 -71 -198 -179 -232l181 -216h-90l-168 200c-14 -2 -28 -4 -43 -4h-150v-196h-78v700zM191 627v-358h154c121 0 221 54 221 179c0 123 -100 179 -221 179h-154z" />
    <glyph glyph-name="Rcommaaccent.ss01" horiz-adv-x="692" 
d="M113 700h226c180 0 301 -96 301 -252c0 -118 -71 -198 -179 -232l181 -216h-90l-168 200c-14 -2 -28 -4 -43 -4h-150v-196h-78v700zM191 627v-358h154c121 0 221 54 221 179c0 123 -100 179 -221 179h-154zM310 -186h-58l72 117h89z" />
    <glyph glyph-name="a" unicode="a" 
d="M571 0h-52l-3 113c-38 -71 -114 -119 -203 -119c-142 0 -250 114 -250 256s108 257 250 257c89 0 165 -49 203 -119l3 112h52v-500zM318 64c100 0 184 78 184 186s-84 187 -184 187c-99 0 -183 -79 -183 -187s84 -186 183 -186z" />
    <glyph glyph-name="aacute" unicode="&#xe1;" 
d="M330 562h-58l72 117h89zM571 0h-52l-3 113c-38 -71 -114 -119 -203 -119c-142 0 -250 114 -250 256s108 257 250 257c89 0 165 -49 203 -119l3 112h52v-500zM318 64c100 0 184 78 184 186s-84 187 -184 187c-99 0 -183 -79 -183 -187s84 -186 183 -186z" />
    <glyph glyph-name="abreve" unicode="&#x103;" 
d="M410 692h52c0 -74 -63 -130 -143 -130s-143 56 -143 130h53c0 -44 39 -77 90 -77s91 33 91 77zM313 507c89 0 165 -49 203 -119l3 112h52v-500h-52l-3 113c-38 -71 -114 -119 -203 -119c-142 0 -250 114 -250 256s108 257 250 257zM318 437c-99 0 -183 -79 -183 -187
s84 -186 183 -186c100 0 184 78 184 186s-84 187 -184 187z" />
    <glyph glyph-name="acaron" unicode="&#x1ce;" 
d="M352 562h-67l-106 121h63l77 -64l76 64h63zM571 0h-52l-3 113c-38 -71 -114 -119 -203 -119c-142 0 -250 114 -250 256s108 257 250 257c89 0 165 -49 203 -119l3 112h52v-500zM318 64c100 0 184 78 184 186s-84 187 -184 187c-99 0 -183 -79 -183 -187s84 -186 183 -186
z" />
    <glyph glyph-name="acircumflex" unicode="&#xe2;" 
d="M395 562l-76 64l-77 -63h-63l106 120h67l106 -121h-63zM571 0h-52l-3 113c-38 -71 -114 -119 -203 -119c-142 0 -250 114 -250 256s108 257 250 257c89 0 165 -49 203 -119l3 112h52v-500zM318 64c100 0 184 78 184 186s-84 187 -184 187c-99 0 -183 -79 -183 -187
s84 -186 183 -186z" />
    <glyph glyph-name="adieresis" unicode="&#xe4;" 
d="M216 562c-25 0 -45 18 -45 41s20 41 45 41s45 -18 45 -41s-20 -41 -45 -41zM423 562c-25 0 -45 18 -45 41s20 41 45 41s45 -18 45 -41s-20 -41 -45 -41zM571 0h-52l-3 113c-38 -71 -114 -119 -203 -119c-142 0 -250 114 -250 256s108 257 250 257c89 0 165 -49 203 -119
l3 112h52v-500zM318 64c100 0 184 78 184 186s-84 187 -184 187c-99 0 -183 -79 -183 -187s84 -186 183 -186z" />
    <glyph glyph-name="agrave" unicode="&#xe0;" 
d="M305 679l73 -117h-59l-102 117h88zM571 0h-52l-3 113c-38 -71 -114 -119 -203 -119c-142 0 -250 114 -250 256s108 257 250 257c89 0 165 -49 203 -119l3 112h52v-500zM318 64c100 0 184 78 184 186s-84 187 -184 187c-99 0 -183 -79 -183 -187s84 -186 183 -186z" />
    <glyph glyph-name="amacron" unicode="&#x101;" 
d="M452 562h-254v56h254v-56zM571 0h-52l-3 113c-38 -71 -114 -119 -203 -119c-142 0 -250 114 -250 256s108 257 250 257c89 0 165 -49 203 -119l3 112h52v-500zM318 64c100 0 184 78 184 186s-84 187 -184 187c-99 0 -183 -79 -183 -187s84 -186 183 -186z" />
    <glyph glyph-name="aogonek" unicode="&#x105;" 
d="M571 500v-500h-1c-52 -19 -70 -42 -70 -68c0 -33 28 -49 60 -49h9v-47h-6c-50 0 -99 24 -99 79c0 38 26 66 78 85h-23l-3 113c-38 -71 -114 -119 -203 -119c-142 0 -250 114 -250 256s108 257 250 257c89 0 165 -49 203 -119l3 112h52zM318 64c100 0 184 78 184 186
s-84 187 -184 187c-99 0 -183 -79 -183 -187s84 -186 183 -186z" />
    <glyph glyph-name="aring" unicode="&#xe5;" 
d="M319 728c46 0 83 -38 83 -82c0 -46 -37 -84 -83 -84s-82 38 -82 84c0 44 36 82 82 82zM319 688c-25 0 -41 -20 -41 -42c0 -24 16 -44 41 -44c24 0 42 20 42 44c0 22 -18 42 -42 42zM571 0h-52l-3 113c-38 -71 -114 -119 -203 -119c-142 0 -250 114 -250 256
s108 257 250 257c89 0 165 -49 203 -119l3 112h52v-500zM318 64c100 0 184 78 184 186s-84 187 -184 187c-99 0 -183 -79 -183 -187s84 -186 183 -186z" />
    <glyph glyph-name="atilde" unicode="&#xe3;" 
d="M466 663l-19 -52c-12 -37 -33 -57 -63 -58c-21 -1 -38 8 -52 19l-39 37c-11 9 -24 14 -37 14c-19 -1 -29 -13 -36 -38l-7 -23h-39l19 52c12 37 33 57 62 58c22 1 39 -7 53 -19l39 -37c11 -8 22 -14 35 -14c20 1 30 13 38 38l8 23h38zM571 0h-52l-3 113
c-38 -71 -114 -119 -203 -119c-142 0 -250 114 -250 256s108 257 250 257c89 0 165 -49 203 -119l3 112h52v-500zM318 64c100 0 184 78 184 186s-84 187 -184 187c-99 0 -183 -79 -183 -187s84 -186 183 -186z" />
    <glyph glyph-name="ae" unicode="&#xe6;" horiz-adv-x="1055" 
d="M313 507c89 0 165 -49 203 -119l3 112h52v-98c35 62 102 105 187 105c109 0 188 -58 224 -146c17 -39 19 -96 9 -128h-413c0 -108 79 -172 187 -173c66 0 125 20 173 54l40 -44c-55 -43 -127 -76 -213 -76c-88 1 -159 38 -194 102v-96h-52l-3 113
c-38 -71 -114 -119 -203 -119c-142 0 -250 114 -250 256s108 257 250 257zM758 440c-101 0 -172 -72 -177 -158h345c1 17 -4 40 -12 57c-24 60 -80 101 -156 101zM318 437c-99 0 -183 -79 -183 -187s84 -186 183 -186c100 0 184 78 184 186s-84 187 -184 187z" />
    <glyph glyph-name="b" unicode="b" 
d="M166 700v-302c34 65 104 109 185 109c142 0 250 -115 250 -257s-108 -256 -250 -256c-89 0 -165 48 -203 119l-3 -113h-52v700h73zM345 437c-99 0 -184 -79 -184 -187s85 -186 184 -186s183 78 183 186s-84 187 -183 187z" />
    <glyph glyph-name="c" unicode="c" horiz-adv-x="574" 
d="M319 507c79 0 150 -36 197 -93l-44 -47c-42 46 -94 70 -153 70c-100 0 -183 -79 -183 -187s83 -186 183 -186c60 0 111 23 153 69l44 -47c-47 -56 -118 -92 -197 -92c-142 0 -256 114 -256 256s114 257 256 257z" />
    <glyph glyph-name="cacute" unicode="&#x107;" horiz-adv-x="574" 
d="M303 562h-58l72 117h89zM319 507c79 0 150 -36 197 -93l-44 -47c-42 46 -94 70 -153 70c-100 0 -183 -79 -183 -187s83 -186 183 -186c60 0 111 23 153 69l44 -47c-47 -56 -118 -92 -197 -92c-142 0 -256 114 -256 256s114 257 256 257z" />
    <glyph glyph-name="ccaron" unicode="&#x10d;" horiz-adv-x="574" 
d="M352 562h-67l-106 121h63l77 -64l76 64h63zM319 507c79 0 150 -36 197 -93l-44 -47c-42 46 -94 70 -153 70c-100 0 -183 -79 -183 -187s83 -186 183 -186c60 0 111 23 153 69l44 -47c-47 -56 -118 -92 -197 -92c-142 0 -256 114 -256 256s114 257 256 257z" />
    <glyph glyph-name="ccedilla" unicode="&#xe7;" horiz-adv-x="574" 
d="M319 64c60 0 111 23 153 69l44 -47c-47 -56 -118 -92 -198 -92l-9 -37c38 12 80 -6 80 -58c0 -54 -60 -84 -127 -44v27c38 -26 78 -13 78 18c0 29 -24 44 -69 25l20 71c-129 13 -228 122 -228 254c0 142 114 257 256 257c79 0 150 -36 197 -93l-44 -47
c-42 46 -94 70 -153 70c-100 0 -183 -79 -183 -187s83 -186 183 -186z" />
    <glyph glyph-name="cdotaccent" unicode="&#x10b;" horiz-adv-x="574" 
d="M319 644c25 0 45 -18 45 -41s-20 -41 -45 -41s-45 18 -45 41s20 41 45 41zM319 507c79 0 150 -36 197 -93l-44 -47c-42 46 -94 70 -153 70c-100 0 -183 -79 -183 -187s83 -186 183 -186c60 0 111 23 153 69l44 -47c-47 -56 -118 -92 -197 -92c-142 0 -256 114 -256 256
s114 257 256 257z" />
    <glyph glyph-name="d" unicode="d" 
d="M571 0h-52l-3 113c-38 -71 -114 -119 -203 -119c-142 0 -250 114 -250 256s108 257 250 257c81 0 151 -44 186 -109v302h72v-700zM318 64c100 0 184 78 184 186s-84 187 -184 187c-99 0 -183 -79 -183 -187s84 -186 183 -186z" />
    <glyph glyph-name="eth" unicode="&#xf0;" horiz-adv-x="668" 
d="M566 670l-44 -39c36 -44 54 -103 54 -173v-203c0 -153 -110 -263 -257 -263c-151 0 -256 115 -256 253c0 139 103 250 245 250c86 0 162 -48 195 -119v82c0 53 -11 96 -33 127l-72 -65l-28 31l71 64c-27 20 -63 30 -108 30c-68 0 -123 -22 -172 -55l-42 45
c54 45 126 76 214 76c66 0 120 -18 160 -51l44 40zM319 62c105 0 184 79 184 183c0 105 -84 183 -184 183c-99 0 -183 -78 -183 -183c0 -104 81 -183 183 -183z" />
    <glyph glyph-name="dcaron" unicode="&#x10f;" horiz-adv-x="856" 
d="M571 0h-52l-3 113c-38 -71 -114 -119 -203 -119c-142 0 -250 114 -250 256s108 257 250 257c81 0 151 -44 186 -109v302h72v-700zM660 583h-58l72 117h89zM318 64c100 0 184 78 184 186s-84 187 -184 187c-99 0 -183 -79 -183 -187s84 -186 183 -186z" />
    <glyph glyph-name="dcroat" unicode="&#x111;" horiz-adv-x="740" 
d="M647 560h-76v-560h-52l-3 113c-38 -71 -114 -119 -203 -119c-142 0 -250 114 -250 256s108 257 250 257c81 0 151 -44 186 -109v162h-77v55h77v85h72v-85h76v-55zM318 64c100 0 184 78 184 186s-84 187 -184 187c-99 0 -183 -79 -183 -187s84 -186 183 -186z" />
    <glyph glyph-name="e" unicode="e" horiz-adv-x="614" 
d="M317 507c110 0 189 -58 225 -146c16 -39 19 -96 9 -128h-414c0 -108 79 -172 188 -173c65 0 124 20 173 54l39 -44c-55 -43 -126 -76 -212 -76c-155 1 -262 105 -262 256c0 142 101 257 254 257zM317 440c-101 0 -172 -72 -177 -158h345c1 17 -4 40 -11 57
c-25 60 -81 101 -157 101z" />
    <glyph glyph-name="eacute" unicode="&#xe9;" horiz-adv-x="614" 
d="M325 562h-58l72 117h89zM317 507c110 0 189 -58 225 -146c16 -39 19 -96 9 -128h-414c0 -108 79 -172 188 -173c65 0 124 20 173 54l39 -44c-55 -43 -126 -76 -212 -76c-155 1 -262 105 -262 256c0 142 101 257 254 257zM317 440c-101 0 -172 -72 -177 -158h345
c1 17 -4 40 -11 57c-25 60 -81 101 -157 101z" />
    <glyph glyph-name="ecaron" unicode="&#x11b;" horiz-adv-x="614" 
d="M351 562h-67l-106 121h63l77 -64l76 64h63zM317 507c110 0 189 -58 225 -146c16 -39 19 -96 9 -128h-414c0 -108 79 -172 188 -173c65 0 124 20 173 54l39 -44c-55 -43 -126 -76 -212 -76c-155 1 -262 105 -262 256c0 142 101 257 254 257zM317 440
c-101 0 -172 -72 -177 -158h345c1 17 -4 40 -11 57c-25 60 -81 101 -157 101z" />
    <glyph glyph-name="ecircumflex" unicode="&#xea;" horiz-adv-x="614" 
d="M456 562h-63l-76 64l-77 -64h-63l106 121h67zM317 507c110 0 189 -58 225 -146c16 -39 19 -96 9 -128h-414c0 -108 79 -172 188 -173c65 0 124 20 173 54l39 -44c-55 -43 -126 -76 -212 -76c-155 1 -262 105 -262 256c0 142 101 257 254 257zM317 440
c-101 0 -172 -72 -177 -158h345c1 17 -4 40 -11 57c-25 60 -81 101 -157 101z" />
    <glyph glyph-name="edieresis" unicode="&#xeb;" horiz-adv-x="614" 
d="M215 644c25 0 45 -18 45 -41c0 -22 -20 -41 -45 -41s-45 19 -45 41c0 23 20 41 45 41zM423 644c25 0 45 -18 45 -41c0 -22 -20 -41 -45 -41s-45 19 -45 41c0 23 20 41 45 41zM317 507c110 0 189 -58 225 -146c16 -39 19 -96 9 -128h-414c0 -108 79 -172 188 -173
c65 0 124 20 173 54l39 -44c-55 -43 -126 -76 -212 -76c-155 1 -262 105 -262 256c0 142 101 257 254 257zM317 440c-101 0 -172 -72 -177 -158h345c1 17 -4 40 -11 57c-25 60 -81 101 -157 101z" />
    <glyph glyph-name="edotaccent" unicode="&#x117;" horiz-adv-x="614" 
d="M317 644c25 0 45 -18 45 -41s-20 -41 -45 -41s-45 18 -45 41s20 41 45 41zM317 507c110 0 189 -58 225 -146c16 -39 19 -96 9 -128h-414c0 -108 79 -172 188 -173c65 0 124 20 173 54l39 -44c-55 -43 -126 -76 -212 -76c-155 1 -262 105 -262 256c0 142 101 257 254 257z
M317 440c-101 0 -172 -72 -177 -158h345c1 17 -4 40 -11 57c-25 60 -81 101 -157 101z" />
    <glyph glyph-name="egrave" unicode="&#xe8;" horiz-adv-x="614" 
d="M370 562h-59l-102 117h88zM317 507c110 0 189 -58 225 -146c16 -39 19 -96 9 -128h-414c0 -108 79 -172 188 -173c65 0 124 20 173 54l39 -44c-55 -43 -126 -76 -212 -76c-155 1 -262 105 -262 256c0 142 101 257 254 257zM317 440c-101 0 -172 -72 -177 -158h345
c1 17 -4 40 -11 57c-25 60 -81 101 -157 101z" />
    <glyph glyph-name="emacron" unicode="&#x113;" horiz-adv-x="614" 
d="M443 562h-254v56h254v-56zM317 507c110 0 189 -58 225 -146c16 -39 19 -96 9 -128h-414c0 -108 79 -172 188 -173c65 0 124 20 173 54l39 -44c-55 -43 -126 -76 -212 -76c-155 1 -262 105 -262 256c0 142 101 257 254 257zM317 440c-101 0 -172 -72 -177 -158h345
c1 17 -4 40 -11 57c-25 60 -81 101 -157 101z" />
    <glyph glyph-name="eogonek" unicode="&#x119;" horiz-adv-x="614" 
d="M542 361c16 -39 19 -96 9 -128h-414c0 -108 79 -172 188 -173c65 0 124 20 173 54l39 -44c-42 -33 -94 -60 -155 -71c-50 -19 -67 -41 -67 -67c0 -33 28 -49 60 -49h9v-47h-6c-50 0 -99 24 -99 79c0 34 21 61 64 79h-18c-155 1 -262 105 -262 256c0 142 101 257 254 257
c110 0 189 -58 225 -146zM140 282h345c1 17 -4 40 -11 57c-25 60 -81 101 -157 101c-101 0 -172 -72 -177 -158z" />
    <glyph glyph-name="f" unicode="f" horiz-adv-x="398" 
d="M348 705v-65h-10c-66 0 -129 -25 -129 -119v-21h139v-69h-140v-431h-72v431h-73v69h74v23c0 132 92 190 198 183z" />
    <glyph glyph-name="g" unicode="g" horiz-adv-x="658" 
d="M308 507c88 0 164 -48 202 -118l4 111h52v-437c0 -151 -86 -253 -243 -254c-88 0 -160 31 -215 76l42 46c50 -34 104 -56 173 -56c110 0 169 63 169 173v60c-35 -63 -104 -107 -184 -107c-142 0 -250 114 -250 253c0 138 108 253 250 253zM313 437
c-99 0 -183 -79 -183 -183c0 -105 84 -183 183 -183c100 0 184 78 184 183c0 104 -84 183 -184 183z" />
    <glyph glyph-name="gbreve" unicode="&#x11f;" horiz-adv-x="658" 
d="M405 692h52c0 -74 -63 -130 -143 -130s-143 56 -143 130h53c0 -44 39 -77 90 -77s91 33 91 77zM308 507c88 0 164 -48 202 -118l4 111h52v-437c0 -151 -86 -253 -243 -254c-88 0 -160 31 -215 76l42 46c50 -34 104 -56 173 -56c110 0 169 63 169 173v60
c-35 -63 -104 -107 -184 -107c-142 0 -250 114 -250 253c0 138 108 253 250 253zM313 437c-99 0 -183 -79 -183 -183c0 -105 84 -183 183 -183c100 0 184 78 184 183c0 104 -84 183 -184 183z" />
    <glyph glyph-name="gcommaaccent" unicode="&#x123;" horiz-adv-x="658" 
d="M308 507c88 0 164 -48 202 -118l4 111h52v-437c0 -151 -86 -253 -243 -254c-88 0 -160 31 -215 76l42 46c50 -34 104 -56 173 -56c110 0 169 63 169 173v60c-35 -63 -104 -107 -184 -107c-142 0 -250 114 -250 253c0 138 108 253 250 253zM313 437
c-99 0 -183 -79 -183 -183c0 -105 84 -183 183 -183c100 0 184 78 184 183c0 104 -84 183 -184 183zM276 -367h-58l72 117h89z" />
    <glyph glyph-name="gdotaccent" unicode="&#x121;" horiz-adv-x="658" 
d="M314 644c25 0 45 -18 45 -41s-20 -41 -45 -41s-45 18 -45 41s20 41 45 41zM308 507c88 0 164 -48 202 -118l4 111h52v-437c0 -151 -86 -253 -243 -254c-88 0 -160 31 -215 76l42 46c50 -34 104 -56 173 -56c110 0 169 63 169 173v60c-35 -63 -104 -107 -184 -107
c-142 0 -250 114 -250 253c0 138 108 253 250 253zM313 437c-99 0 -183 -79 -183 -183c0 -105 84 -183 183 -183c100 0 184 78 184 183c0 104 -84 183 -184 183z" />
    <glyph glyph-name="h" unicode="h" horiz-adv-x="658" 
d="M353 507c136 0 217 -89 217 -238v-269h-72v266c0 118 -62 171 -155 171c-104 0 -172 -71 -172 -199v-238h-73v700h73v-301c37 78 116 108 182 108z" />
    <glyph glyph-name="hbar" unicode="&#x127;" horiz-adv-x="738" 
d="M433 507c136 0 217 -89 217 -238v-269h-72v266c0 118 -62 171 -155 171c-104 0 -172 -71 -172 -199v-238h-73v556h-80v52h80v92h73v-92h79v-52h-79v-157c37 78 116 108 182 108z" />
    <glyph glyph-name="i" unicode="i" horiz-adv-x="280" 
d="M143 562c-25 0 -45 18 -45 41s20 41 45 41s45 -18 45 -41s-20 -41 -45 -41zM106 0v500h73v-500h-73z" />
    <glyph glyph-name="dotlessi" unicode="&#x131;" horiz-adv-x="263" 
d="M98 0v500h73v-500h-73z" />
    <glyph glyph-name="iacute" unicode="&#xed;" horiz-adv-x="351" 
d="M156 562h-58l72 117h89zM117 0v500h73v-500h-73z" />
    <glyph glyph-name="icaron" unicode="&#x1d0;" horiz-adv-x="470" 
d="M271 562h-67l-106 121h63l77 -64l76 64h63zM274 0h-73v500h73v-500z" />
    <glyph glyph-name="icircumflex" unicode="&#xee;" horiz-adv-x="470" 
d="M271 683l106 -121h-63l-76 64l-77 -63h-63l106 120h67zM274 0h-73v500h73v-500z" />
    <glyph glyph-name="idieresis" unicode="&#xef;" horiz-adv-x="488" 
d="M143 562c-25 0 -45 18 -45 41s20 41 45 41s44 -18 44 -41s-19 -41 -44 -41zM350 562c-25 0 -45 18 -45 41s20 41 45 41s45 -18 45 -41s-20 -41 -45 -41zM212 0v500h73v-500h-73z" />
    <glyph glyph-name="i.loclTRK" horiz-adv-x="280" 
d="M143 562c-25 0 -45 18 -45 41s20 41 45 41s45 -18 45 -41s-20 -41 -45 -41zM106 0v500h73v-500h-73z" />
    <glyph glyph-name="igrave" unicode="&#xec;" horiz-adv-x="351" 
d="M187 679l72 -117h-59l-102 117h89zM181 0v500h73v-500h-73z" />
    <glyph glyph-name="ij" unicode="&#x133;" horiz-adv-x="455" 
d="M143 644c25 0 45 -18 45 -41s-20 -41 -45 -41s-45 18 -45 41s20 41 45 41zM318 644c25 0 45 -18 45 -41s-20 -41 -45 -41s-45 18 -45 41s20 41 45 41zM179 0h-73v500h73v-500zM354 -184h-73v684h73v-684z" />
    <glyph glyph-name="imacron" unicode="&#x12b;" horiz-adv-x="445" 
d="M352 562h-254v56h254v-56zM189 0v500h73v-500h-73z" />
    <glyph glyph-name="iogonek" unicode="&#x12f;" horiz-adv-x="327" 
d="M189 562c-25 0 -45 18 -45 41s20 41 45 41s45 -18 45 -41s-20 -41 -45 -41zM153 500h73v-500c-53 -19 -71 -42 -71 -68c0 -33 28 -49 60 -49h9v-47h-6c-50 0 -99 24 -99 79c0 38 26 66 79 85h-45v500z" />
    <glyph glyph-name="j" unicode="j" horiz-adv-x="280" 
d="M143 644c25 0 45 -18 45 -41s-20 -41 -45 -41s-45 18 -45 41s20 41 45 41zM179 -184h-73v684h73v-684z" />
    <glyph glyph-name="k" unicode="k" horiz-adv-x="582" 
d="M465 0l-82 126c-46 72 -64 97 -136 97h-76v-223h-73v700h73v-407h65c72 0 90 25 136 97l72 110h82l-94 -142c-33 -49 -58 -84 -90 -98c39 -11 65 -47 101 -102l103 -158h-81z" />
    <glyph glyph-name="kcommaaccent" unicode="&#x137;" horiz-adv-x="582" 
d="M465 0l-82 126c-46 72 -64 97 -136 97h-76v-223h-73v700h73v-407h65c72 0 90 25 136 97l72 110h82l-94 -142c-33 -49 -58 -84 -90 -98c39 -11 65 -47 101 -102l103 -158h-81zM261 -186h-58l72 117h89z" />
    <glyph glyph-name="l" unicode="l" horiz-adv-x="262" 
d="M98 0v700h73v-700h-73z" />
    <glyph glyph-name="lacute" unicode="&#x13a;" horiz-adv-x="349" 
d="M156 750h-58l72 117h89zM117 700h73v-700h-73v700z" />
    <glyph glyph-name="lcaron" unicode="&#x13e;" horiz-adv-x="452" 
d="M98 700h73v-700h-73v700zM258 583h-58l72 117h89z" />
    <glyph glyph-name="lcommaaccent" unicode="&#x13c;" horiz-adv-x="349" 
d="M158 700h73v-700h-73v700zM156 -181h-58l72 117h89z" />
    <glyph glyph-name="ldot" unicode="&#x140;" horiz-adv-x="392" 
d="M98 700h73v-700h-73v700zM254 347c28 0 48 -22 48 -48c0 -25 -20 -47 -48 -47s-48 22 -48 47c0 26 20 48 48 48z" />
    <glyph glyph-name="lslash" unicode="&#x142;" horiz-adv-x="385" 
d="M294 451l-61 -27v-424h-73v392l-62 -27v49l62 27v259h73v-227l61 27v-49z" />
    <glyph glyph-name="m" unicode="m" horiz-adv-x="1053" 
d="M748 507c136 0 217 -89 217 -238v-269h-72v266c0 118 -62 171 -155 171c-105 0 -173 -71 -173 -199v-238h-72v266c0 118 -62 171 -155 171c-104 0 -172 -71 -172 -199v-238h-73v500h52l4 -114c39 86 122 121 199 121c97 0 168 -47 195 -135c36 95 124 135 205 135z" />
    <glyph glyph-name="n" unicode="n" horiz-adv-x="653" 
d="M348 507c136 0 217 -89 217 -238v-269h-72v266c0 118 -62 171 -155 171c-104 0 -172 -71 -172 -199v-238h-73v500h52l4 -114c39 86 122 121 199 121z" />
    <glyph glyph-name="nacute" unicode="&#x144;" horiz-adv-x="653" 
d="M343 562h-58l72 117h89zM348 507c136 0 217 -89 217 -238v-269h-72v266c0 118 -62 171 -155 171c-104 0 -172 -71 -172 -199v-238h-73v500h52l4 -114c39 86 122 121 199 121z" />
    <glyph glyph-name="ncaron" unicode="&#x148;" horiz-adv-x="653" 
d="M374 562h-67l-106 121h63l77 -64l76 64h63zM348 507c136 0 217 -89 217 -238v-269h-72v266c0 118 -62 171 -155 171c-104 0 -172 -71 -172 -199v-238h-73v500h52l4 -114c39 86 122 121 199 121z" />
    <glyph glyph-name="ncommaaccent" unicode="&#x146;" horiz-adv-x="653" 
d="M348 507c136 0 217 -89 217 -238v-269h-72v266c0 118 -62 171 -155 171c-104 0 -172 -71 -172 -199v-238h-73v500h52l4 -114c39 86 122 121 199 121zM309 -186h-58l72 117h89z" />
    <glyph glyph-name="eng" unicode="&#x14b;" horiz-adv-x="653" 
d="M348 507c136 0 217 -89 217 -238v-253c0 -146 -86 -213 -199 -206l-13 1l1 65h9c71 0 130 24 130 136v254c0 118 -62 171 -155 171c-104 0 -172 -71 -172 -199v-238h-73v500h52l4 -114c39 86 122 121 199 121z" />
    <glyph glyph-name="ntilde" unicode="&#xf1;" horiz-adv-x="653" 
d="M474 663l-19 -52c-12 -37 -33 -57 -63 -58c-21 -1 -38 8 -52 19l-39 37c-11 9 -24 14 -37 14c-19 -1 -29 -13 -36 -38l-7 -23h-39l19 52c12 37 33 57 62 58c22 1 39 -7 53 -19l39 -37c11 -8 22 -14 35 -14c20 1 30 13 38 38l8 23h38zM348 507c136 0 217 -89 217 -238
v-269h-72v266c0 118 -62 171 -155 171c-104 0 -172 -71 -172 -199v-238h-73v500h52l4 -114c39 86 122 121 199 121z" />
    <glyph glyph-name="o" unicode="o" horiz-adv-x="638" 
d="M319 507c142 0 257 -115 257 -257s-115 -256 -257 -256s-256 114 -256 256s114 257 256 257zM318 437c-99 0 -183 -79 -183 -187s84 -186 183 -186c100 0 184 78 184 186s-84 187 -184 187z" />
    <glyph glyph-name="oacute" unicode="&#xf3;" horiz-adv-x="638" 
d="M322 562h-58l72 117h89zM319 507c142 0 257 -115 257 -257s-115 -256 -257 -256s-256 114 -256 256s114 257 256 257zM318 437c-99 0 -183 -79 -183 -187s84 -186 183 -186c100 0 184 78 184 186s-84 187 -184 187z" />
    <glyph glyph-name="ocaron" unicode="&#x1d2;" horiz-adv-x="638" 
d="M352 562h-67l-106 121h63l77 -64l76 64h63zM319 507c142 0 257 -115 257 -257s-115 -256 -257 -256s-256 114 -256 256s114 257 256 257zM318 437c-99 0 -183 -79 -183 -187s84 -186 183 -186c100 0 184 78 184 186s-84 187 -184 187z" />
    <glyph glyph-name="ocircumflex" unicode="&#xf4;" horiz-adv-x="638" 
d="M395 562l-76 64l-77 -64h-63l106 121h67l106 -121h-63zM319 507c142 0 257 -115 257 -257s-115 -256 -257 -256s-256 114 -256 256s114 257 256 257zM318 437c-99 0 -183 -79 -183 -187s84 -186 183 -186c100 0 184 78 184 186s-84 187 -184 187z" />
    <glyph glyph-name="odieresis" unicode="&#xf6;" horiz-adv-x="638" 
d="M217 562c-25 0 -45 18 -45 41s20 41 45 41s45 -18 45 -41s-20 -41 -45 -41zM425 562c-25 0 -45 18 -45 41s20 41 45 41s45 -18 45 -41s-20 -41 -45 -41zM319 507c142 0 257 -115 257 -257s-115 -256 -257 -256s-256 114 -256 256s114 257 256 257zM318 437
c-99 0 -183 -79 -183 -187s84 -186 183 -186c100 0 184 78 184 186s-84 187 -184 187z" />
    <glyph glyph-name="ograve" unicode="&#xf2;" horiz-adv-x="638" 
d="M294 679l73 -117h-59l-102 117h88zM319 507c142 0 257 -115 257 -257s-115 -256 -257 -256s-256 114 -256 256s114 257 256 257zM318 437c-99 0 -183 -79 -183 -187s84 -186 183 -186c100 0 184 78 184 186s-84 187 -184 187z" />
    <glyph glyph-name="ohungarumlaut" unicode="&#x151;" horiz-adv-x="641" 
d="M259 562h-58l72 117h89zM396 562h-58l72 117h89zM319 507c142 0 257 -115 257 -257s-115 -256 -257 -256s-256 114 -256 256s114 257 256 257zM318 437c-99 0 -183 -79 -183 -187s84 -186 183 -186c100 0 184 78 184 186s-84 187 -184 187z" />
    <glyph glyph-name="omacron" unicode="&#x14d;" horiz-adv-x="638" 
d="M445 562h-254v56h254v-56zM319 507c142 0 257 -115 257 -257s-115 -256 -257 -256s-256 114 -256 256s114 257 256 257zM318 437c-99 0 -183 -79 -183 -187s84 -186 183 -186c100 0 184 78 184 186s-84 187 -184 187z" />
    <glyph glyph-name="oslash" unicode="&#xf8;" horiz-adv-x="638" 
d="M576 500l-69 -75c43 -46 69 -107 69 -175c0 -142 -115 -256 -257 -256c-60 0 -115 20 -158 54l-45 -48h-53l69 75c-43 46 -69 107 -69 175c0 142 114 257 256 257c60 0 116 -21 159 -55l45 48h53zM135 250c0 -49 17 -91 45 -123l250 272c-31 24 -70 38 -112 38
c-99 0 -183 -79 -183 -187zM502 250c0 48 -17 90 -44 122l-250 -272c31 -23 69 -36 110 -36c100 0 184 78 184 186z" />
    <glyph glyph-name="otilde" unicode="&#xf5;" horiz-adv-x="638" 
d="M464 663l-19 -52c-12 -37 -33 -57 -63 -58c-21 -1 -38 8 -52 19l-39 37c-11 9 -24 14 -37 14c-19 -1 -29 -13 -36 -38l-7 -23h-39l19 52c12 37 33 57 62 58c22 1 39 -7 53 -19l39 -37c11 -8 22 -14 35 -14c20 1 30 13 38 38l8 23h38zM319 507c142 0 257 -115 257 -257
s-115 -256 -257 -256s-256 114 -256 256s114 257 256 257zM318 437c-99 0 -183 -79 -183 -187s84 -186 183 -186c100 0 184 78 184 186s-84 187 -184 187z" />
    <glyph glyph-name="oe" unicode="&#x153;" horiz-adv-x="1054" 
d="M757 507c109 0 189 -58 225 -146c16 -39 18 -96 9 -128h-414c0 -108 79 -172 188 -173c65 0 124 20 173 54l39 -44c-55 -43 -126 -76 -212 -76c-109 1 -193 53 -227 139c-37 -82 -121 -139 -219 -139c-142 0 -256 114 -256 256s114 257 256 257c98 0 182 -58 218 -140
c34 82 115 140 220 140zM757 440c-101 0 -172 -72 -177 -158h345c1 17 -4 40 -11 57c-25 60 -81 101 -157 101zM318 437c-99 0 -183 -79 -183 -187s84 -186 183 -186c100 0 184 78 184 186s-84 187 -184 187z" />
    <glyph glyph-name="p" unicode="p" horiz-adv-x="640" 
d="M327 507c142 0 250 -115 250 -257s-108 -256 -250 -256c-81 0 -151 44 -185 108v-286h-73v684h52l3 -113c38 71 114 120 203 120zM321 437c-99 0 -184 -79 -184 -187s85 -187 184 -187s183 79 183 187s-84 187 -183 187z" />
    <glyph glyph-name="thorn" unicode="&#xfe;" horiz-adv-x="667" 
d="M169 700v-302c34 64 104 109 185 109c142 0 250 -115 250 -257s-108 -256 -250 -256c-81 0 -151 44 -185 108v-286h-73v884h73zM348 437c-99 0 -184 -79 -184 -187s85 -187 184 -187s183 79 183 187s-84 187 -183 187z" />
    <glyph glyph-name="q" unicode="q" 
d="M571 -184h-72v286c-35 -64 -105 -108 -186 -108c-142 0 -250 114 -250 256s108 257 250 257c89 0 165 -49 203 -120l3 113h52v-684zM318 63c100 0 184 79 184 187s-84 187 -184 187c-99 0 -183 -79 -183 -187s84 -187 183 -187z" />
    <glyph glyph-name="r" unicode="r" horiz-adv-x="428" 
d="M392 437h-28c-143 0 -198 -97 -198 -223v-214h-73v500h52l7 -135c38 94 120 142 227 142h13v-70z" />
    <glyph glyph-name="racute" unicode="&#x155;" horiz-adv-x="428" 
d="M240 562h-58l72 117h89zM392 437h-28c-143 0 -198 -97 -198 -223v-214h-73v500h52l7 -135c38 94 120 142 227 142h13v-70z" />
    <glyph glyph-name="rcaron" unicode="&#x159;" horiz-adv-x="428" 
d="M272 562h-67l-106 121h63l77 -64l76 64h63zM392 437h-28c-143 0 -198 -97 -198 -223v-214h-73v500h52l7 -135c38 94 120 142 227 142h13v-70z" />
    <glyph glyph-name="rcommaaccent" unicode="&#x157;" horiz-adv-x="428" 
d="M392 437h-28c-143 0 -198 -97 -198 -223v-214h-73v500h52l7 -135c38 94 120 142 227 142h13v-70zM201 -186h-58l72 117h89z" />
    <glyph glyph-name="s" unicode="s" horiz-adv-x="549" 
d="M268 507h11c75 0 156 -36 196 -93l-42 -39c-33 45 -101 73 -153 73h-8c-68 0 -120 -30 -120 -80c0 -37 18 -64 107 -74l59 -6c84 -8 168 -36 168 -146c0 -91 -83 -148 -195 -149h-7c-95 0 -186 41 -221 101l42 40c28 -46 104 -81 178 -81h4c68 1 127 28 127 86
c0 70 -53 81 -109 87l-57 6c-121 12 -169 60 -169 132c0 90 85 142 189 143z" />
    <glyph glyph-name="sacute" unicode="&#x15b;" horiz-adv-x="549" 
d="M285 562h-58l72 117h89zM268 507h11c75 0 156 -36 196 -93l-42 -39c-33 45 -101 73 -153 73h-8c-68 0 -120 -30 -120 -80c0 -37 18 -64 107 -74l59 -6c84 -8 168 -36 168 -146c0 -91 -83 -148 -195 -149h-7c-95 0 -186 41 -221 101l42 40c28 -46 104 -81 178 -81h4
c68 1 127 28 127 86c0 70 -53 81 -109 87l-57 6c-121 12 -169 60 -169 132c0 90 85 142 189 143z" />
    <glyph glyph-name="scaron" unicode="&#x161;" horiz-adv-x="549" 
d="M307 562h-67l-106 121h63l77 -64l76 64h63zM268 507h11c75 0 156 -36 196 -93l-42 -39c-33 45 -101 73 -153 73h-8c-68 0 -120 -30 -120 -80c0 -37 18 -64 107 -74l59 -6c84 -8 168 -36 168 -146c0 -91 -83 -148 -195 -149h-7c-95 0 -186 41 -221 101l42 40
c28 -46 104 -81 178 -81h4c68 1 127 28 127 86c0 70 -53 81 -109 87l-57 6c-121 12 -169 60 -169 132c0 90 85 142 189 143z" />
    <glyph glyph-name="scedilla" unicode="&#x15f;" horiz-adv-x="549" 
d="M290 -7l-9 -36c38 12 80 -6 80 -58c0 -54 -60 -84 -127 -44v27c38 -26 78 -13 78 18c0 29 -24 44 -69 25l19 69c-87 5 -167 45 -199 100l42 40c28 -46 104 -81 178 -81h4c68 1 127 28 127 86c0 70 -53 81 -109 87l-57 6c-121 12 -169 60 -169 132c0 90 85 142 189 143h11
c75 0 156 -36 196 -93l-42 -39c-33 45 -101 73 -153 73h-8c-68 0 -120 -30 -120 -80c0 -37 18 -64 107 -74l59 -6c84 -8 168 -36 168 -146c0 -91 -83 -148 -196 -149z" />
    <glyph glyph-name="scommaaccent" unicode="&#x219;" horiz-adv-x="549" 
d="M268 507h11c75 0 156 -36 196 -93l-42 -39c-33 45 -101 73 -153 73h-8c-68 0 -120 -30 -120 -80c0 -37 18 -64 107 -74l59 -6c84 -8 168 -36 168 -146c0 -91 -83 -148 -195 -149h-7c-95 0 -186 41 -221 101l42 40c28 -46 104 -81 178 -81h4c68 1 127 28 127 86
c0 70 -53 81 -109 87l-57 6c-121 12 -169 60 -169 132c0 90 85 142 189 143zM239 -186h-58l72 117h89z" />
    <glyph glyph-name="germandbls" unicode="&#xdf;" horiz-adv-x="659" 
d="M321 707h32c172 0 226 -99 226 -184c0 -74 -34 -136 -111 -160c87 -19 135 -84 135 -172c0 -116 -83 -198 -253 -198h-118v73h118c109 0 179 44 179 133c0 75 -47 127 -155 127h-86v73h66c122 0 151 56 151 115c0 69 -44 120 -152 120h-35c-107 0 -151 -55 -151 -124
v-510h-74v520c0 85 53 187 228 187z" />
    <glyph glyph-name="t" unicode="t" horiz-adv-x="334" 
d="M209 431v-431h-73v431h-73v69h73v168h73v-168h73v-69h-73z" />
    <glyph glyph-name="tbar" unicode="&#x167;" horiz-adv-x="334" 
d="M209 431v-99h73v-70h-73v-262h-73v262h-73v70h73v99h-73v69h73v168h73v-168h73v-69h-73z" />
    <glyph glyph-name="tcaron" unicode="&#x165;" horiz-adv-x="469" 
d="M313 583h-58l72 117h89zM209 431v-431h-73v431h-73v69h73v168h73v-168h73v-69h-73z" />
    <glyph glyph-name="tcedilla" unicode="&#x163;" horiz-adv-x="334" 
d="M179 0l-11 -43c38 12 80 -6 80 -58c0 -54 -60 -84 -127 -44v27c38 -26 78 -13 78 18c0 29 -24 44 -69 25l21 75h-15v431h-73v69h73v168h73v-168h73v-69h-73v-431h-30z" />
    <glyph glyph-name="uni021B" unicode="&#x21b;" horiz-adv-x="335" 
d="M209 431v-431h-73v431h-73v69h73v168h73v-168h73v-69h-73zM134 -186h-58l72 117h89z" />
    <glyph glyph-name="u" unicode="u" horiz-adv-x="648" 
d="M560 0h-51l-5 114c-39 -86 -122 -121 -198 -121c-137 0 -218 89 -218 238v269h73v-265c0 -119 61 -172 155 -172c104 0 172 71 172 199v238h72v-500z" />
    <glyph glyph-name="uacute" unicode="&#xfa;" horiz-adv-x="648" 
d="M416 679l-103 -117h-58l72 117h89zM560 0h-51l-5 114c-39 -86 -122 -121 -198 -121c-137 0 -218 89 -218 238v269h73v-265c0 -119 61 -172 155 -172c104 0 172 71 172 199v238h72v-500z" />
    <glyph glyph-name="ucaron" unicode="&#x1d4;" horiz-adv-x="648" 
d="M349 562h-67l-106 121h63l77 -64l76 64h63zM560 0h-51l-5 114c-39 -86 -122 -121 -198 -121c-137 0 -218 89 -218 238v269h73v-265c0 -119 61 -172 155 -172c104 0 172 71 172 199v238h72v-500z" />
    <glyph glyph-name="ucircumflex" unicode="&#xfb;" horiz-adv-x="648" 
d="M392 562l-76 64l-77 -63h-63l106 120h67l106 -121h-63zM560 0h-51l-5 114c-39 -86 -122 -121 -198 -121c-137 0 -218 89 -218 238v269h73v-265c0 -119 61 -172 155 -172c104 0 172 71 172 199v238h72v-500z" />
    <glyph glyph-name="udieresis" unicode="&#xfc;" horiz-adv-x="648" 
d="M217 644c25 0 45 -18 45 -41s-20 -41 -45 -41s-45 18 -45 41s20 41 45 41zM425 644c25 0 45 -18 45 -41s-20 -41 -45 -41s-45 18 -45 41s20 41 45 41zM560 0h-51l-5 114c-39 -86 -122 -121 -198 -121c-137 0 -218 89 -218 238v269h73v-265c0 -119 61 -172 155 -172
c104 0 172 71 172 199v238h72v-500z" />
    <glyph glyph-name="udieresisacute" unicode="&#x1d8;" horiz-adv-x="648" 
d="M331 673h-58l72 117h89zM217 644c25 0 45 -18 45 -41s-20 -41 -45 -41s-45 18 -45 41s20 41 45 41zM425 644c25 0 45 -18 45 -41s-20 -41 -45 -41s-45 18 -45 41s20 41 45 41zM560 0h-51l-5 114c-39 -86 -122 -121 -198 -121c-137 0 -218 89 -218 238v269h73v-265
c0 -119 61 -172 155 -172c104 0 172 71 172 199v238h72v-500z" />
    <glyph glyph-name="udieresiscaron" unicode="&#x1da;" horiz-adv-x="648" 
d="M349 673h-67l-106 120h63l77 -64l76 64h63zM217 644c25 0 45 -18 45 -41s-20 -41 -45 -41s-45 18 -45 41s20 41 45 41zM425 644c25 0 45 -18 45 -41s-20 -41 -45 -41s-45 18 -45 41s20 41 45 41zM560 0h-51l-5 114c-39 -86 -122 -121 -198 -121c-137 0 -218 89 -218 238
v269h73v-265c0 -119 61 -172 155 -172c104 0 172 71 172 199v238h72v-500z" />
    <glyph glyph-name="udieresisgrave" unicode="&#x1dc;" horiz-adv-x="648" 
d="M365 673h-59l-102 117h88zM217 644c25 0 45 -18 45 -41s-20 -41 -45 -41s-45 18 -45 41s20 41 45 41zM425 644c25 0 45 -18 45 -41s-20 -41 -45 -41s-45 18 -45 41s20 41 45 41zM560 0h-51l-5 114c-39 -86 -122 -121 -198 -121c-137 0 -218 89 -218 238v269h73v-265
c0 -119 61 -172 155 -172c104 0 172 71 172 199v238h72v-500z" />
    <glyph glyph-name="udieresismacron" unicode="&#x1d6;" horiz-adv-x="648" 
d="M450 673h-254v55h254v-55zM217 644c25 0 45 -18 45 -41s-20 -41 -45 -41s-45 18 -45 41s20 41 45 41zM425 644c25 0 45 -18 45 -41s-20 -41 -45 -41s-45 18 -45 41s20 41 45 41zM560 0h-51l-5 114c-39 -86 -122 -121 -198 -121c-137 0 -218 89 -218 238v269h73v-265
c0 -119 61 -172 155 -172c104 0 172 71 172 199v238h72v-500z" />
    <glyph glyph-name="ugrave" unicode="&#xf9;" horiz-adv-x="648" 
d="M361 562h-59l-102 117h88zM560 0h-51l-5 114c-39 -86 -122 -121 -198 -121c-137 0 -218 89 -218 238v269h73v-265c0 -119 61 -172 155 -172c104 0 172 71 172 199v238h72v-500z" />
    <glyph glyph-name="uhungarumlaut" unicode="&#x171;" horiz-adv-x="649" 
d="M244 562h-58l72 117h89zM381 562h-58l72 117h89zM560 0h-51l-5 114c-39 -86 -122 -121 -198 -121c-137 0 -218 89 -218 238v269h73v-265c0 -119 61 -172 155 -172c104 0 172 71 172 199v238h72v-500z" />
    <glyph glyph-name="umacron" unicode="&#x16b;" horiz-adv-x="648" 
d="M444 562h-254v56h254v-56zM560 0h-51l-5 114c-39 -86 -122 -121 -198 -121c-137 0 -218 89 -218 238v269h73v-265c0 -119 61 -172 155 -172c104 0 172 71 172 199v238h72v-500z" />
    <glyph glyph-name="uogonek" unicode="&#x173;" horiz-adv-x="648" 
d="M560 500v-500c-52 -19 -70 -42 -70 -68c0 -33 28 -49 60 -49h9v-47h-6c-50 0 -99 24 -99 79c0 38 26 66 78 85h-23l-5 114c-39 -86 -122 -121 -198 -121c-137 0 -218 89 -218 238v269h73v-265c0 -119 61 -172 155 -172c104 0 172 71 172 199v238h72z" />
    <glyph glyph-name="uring" unicode="&#x16f;" horiz-adv-x="648" 
d="M315 728c46 0 83 -38 83 -82c0 -46 -37 -84 -83 -84s-82 38 -82 84c0 44 36 82 82 82zM315 688c-25 0 -41 -20 -41 -42c0 -24 16 -44 41 -44c24 0 42 20 42 44c0 22 -18 42 -42 42zM560 0h-51l-5 114c-39 -86 -122 -121 -198 -121c-137 0 -218 89 -218 238v269h73v-265
c0 -119 61 -172 155 -172c104 0 172 71 172 199v238h72v-500z" />
    <glyph glyph-name="v" unicode="v" horiz-adv-x="577" 
d="M310 0h-44l-230 500h77l175 -388l176 388h77z" />
    <glyph glyph-name="w" unicode="w" horiz-adv-x="945" 
d="M687 0h-43l-172 380l-172 -380h-43l-221 500h77l166 -388l172 388h42l172 -387l167 387h76z" />
    <glyph glyph-name="wacute" unicode="&#x1e83;" horiz-adv-x="945" 
d="M481 562h-58l72 117h89zM687 0h-43l-172 380l-172 -380h-43l-221 500h77l166 -388l172 388h42l172 -387l167 387h76z" />
    <glyph glyph-name="wcircumflex" unicode="&#x175;" horiz-adv-x="945" 
d="M549 562l-76 64l-77 -63h-63l106 120h67l106 -121h-63zM687 0h-43l-172 380l-172 -380h-43l-221 500h77l166 -388l172 388h42l172 -387l167 387h76z" />
    <glyph glyph-name="wdieresis" unicode="&#x1e85;" horiz-adv-x="945" 
d="M371 562c-25 0 -45 18 -45 41s20 41 45 41s45 -18 45 -41s-20 -41 -45 -41zM578 562c-25 0 -45 18 -45 41s20 41 45 41s45 -18 45 -41s-20 -41 -45 -41zM687 0h-43l-172 380l-172 -380h-43l-221 500h77l166 -388l172 388h42l172 -387l167 387h76z" />
    <glyph glyph-name="wgrave" unicode="&#x1e81;" horiz-adv-x="945" 
d="M449 679l73 -117h-59l-102 117h88zM687 0h-43l-172 380l-172 -380h-43l-221 500h77l166 -388l172 388h42l172 -387l167 387h76z" />
    <glyph glyph-name="x" unicode="x" horiz-adv-x="576" 
d="M286 199l-165 -199h-85l209 258l-198 242h84l158 -185l155 185h84l-198 -245l209 -255h-85z" />
    <glyph glyph-name="y" unicode="y" horiz-adv-x="653" 
d="M566 500v-437c0 -151 -86 -253 -243 -254c-88 0 -160 31 -215 76l42 46c50 -34 104 -56 173 -56c110 0 169 63 169 174v59c-37 -78 -116 -107 -181 -107c-137 0 -218 88 -218 238v261h73v-258c0 -119 61 -171 155 -171c104 0 172 71 172 198v231h73z" />
    <glyph glyph-name="yacute" unicode="&#xfd;" horiz-adv-x="653" 
d="M318 562h-58l72 117h89zM566 500v-437c0 -151 -86 -253 -243 -254c-88 0 -160 31 -215 76l42 46c50 -34 104 -56 173 -56c110 0 169 63 169 174v59c-37 -78 -116 -107 -181 -107c-137 0 -218 88 -218 238v261h73v-258c0 -119 61 -171 155 -171c104 0 172 71 172 198v231
h73z" />
    <glyph glyph-name="ycircumflex" unicode="&#x177;" horiz-adv-x="653" 
d="M354 683l106 -121h-63l-76 64l-77 -63h-63l106 120h67zM166 500v-258c0 -119 61 -171 155 -171c104 0 172 71 172 198v231h73v-437c0 -151 -86 -253 -243 -254c-88 0 -160 31 -215 76l42 46c50 -34 104 -56 173 -56c110 0 169 63 169 174v59c-37 -78 -116 -107 -181 -107
c-137 0 -218 88 -218 238v261h73z" />
    <glyph glyph-name="ydieresis" unicode="&#xff;" horiz-adv-x="653" 
d="M218 644c25 0 45 -18 45 -41s-20 -41 -45 -41s-45 18 -45 41s20 41 45 41zM426 644c25 0 45 -18 45 -41s-20 -41 -45 -41s-45 18 -45 41s20 41 45 41zM166 500v-258c0 -119 61 -171 155 -171c104 0 172 71 172 198v231h73v-437c0 -151 -86 -253 -243 -254
c-88 0 -160 31 -215 76l42 46c50 -34 104 -56 173 -56c110 0 169 63 169 174v59c-37 -78 -116 -107 -181 -107c-137 0 -218 88 -218 238v261h73z" />
    <glyph glyph-name="ygrave" unicode="&#x1ef3;" horiz-adv-x="653" 
d="M376 562h-59l-102 117h88zM166 500v-258c0 -119 61 -171 155 -171c104 0 172 71 172 198v231h73v-437c0 -151 -86 -253 -243 -254c-88 0 -160 31 -215 76l42 46c50 -34 104 -56 173 -56c110 0 169 63 169 174v59c-37 -78 -116 -107 -181 -107c-137 0 -218 88 -218 238
v261h73z" />
    <glyph glyph-name="z" unicode="z" horiz-adv-x="559" 
d="M496 0h-433v50l315 381h-288v69h395l-1 -50l-314 -381h326v-69z" />
    <glyph glyph-name="zacute" unicode="&#x17a;" horiz-adv-x="559" 
d="M274 562h-58l72 117h89zM496 0h-433v50l315 381h-288v69h395l-1 -50l-314 -381h326v-69z" />
    <glyph glyph-name="zcaron" unicode="&#x17e;" horiz-adv-x="559" 
d="M315 562h-67l-106 121h63l77 -64l76 64h63zM484 450l-314 -381h326v-69h-433v50l315 381h-288v69h395z" />
    <glyph glyph-name="zdotaccent" unicode="&#x17c;" horiz-adv-x="559" 
d="M273 562c-25 0 -45 18 -45 41s20 41 45 41s45 -18 45 -41s-20 -41 -45 -41zM496 0h-433v50l315 381h-288v69h395l-1 -50l-314 -381h326v-69z" />
    <glyph glyph-name="k.ss01" horiz-adv-x="582" 
d="M171 220v-220h-73v700h73v-410h115l169 210h82l-194 -245l203 -255h-82l-179 220h-114z" />
    <glyph glyph-name="kcommaaccent.ss01" horiz-adv-x="582" 
d="M171 220v-220h-73v700h73v-410h115l169 210h82l-194 -245l203 -255h-82l-179 220h-114zM358 -69l-103 -117h-58l72 117h89z" />
    <glyph glyph-name="uni0410" unicode="&#x410;" horiz-adv-x="715" 
d="M208 186l-76 -186h-86l290 700h44l289 -700h-86l-76 186h-299zM358 556l-122 -297h244z" />
    <glyph glyph-name="uni0411" unicode="&#x411;" horiz-adv-x="696" 
d="M191 423h215c157 0 234 -82 234 -212c0 -129 -69 -211 -234 -211h-293v700h444v-73h-366v-204zM191 73h216c117 0 158 50 158 138c0 89 -49 139 -158 139h-216v-277z" />
    <glyph glyph-name="uni0412" unicode="&#x412;" horiz-adv-x="692" 
d="M113 700h254c196 0 232 -99 232 -180c0 -73 -33 -129 -106 -153c92 -17 143 -84 143 -173c0 -112 -63 -194 -244 -194h-279v700zM191 627v-231h183c122 0 151 57 151 115s-21 116 -151 116h-183zM191 329v-256h215c117 0 156 53 156 128s-48 128 -156 128h-215z" />
    <glyph glyph-name="uni0413" unicode="&#x413;" horiz-adv-x="596" 
d="M191 627v-627h-78v700h436v-73h-358z" />
    <glyph glyph-name="uni0414" unicode="&#x414;" horiz-adv-x="812" 
d="M778 -129h-78v129h-588v-129h-78v202h91l260 627h44l259 -627h90v-202zM406 554l-198 -481h396z" />
    <glyph glyph-name="uni0415" unicode="&#x415;" horiz-adv-x="617" 
d="M191 390h343v-73h-343v-244h365v-73h-443v700h443v-73h-365v-237z" />
    <glyph glyph-name="uni0401" unicode="&#x401;" horiz-adv-x="612" 
d="M226 750c-25 0 -45 18 -45 41s20 41 45 41s45 -18 45 -41s-20 -41 -45 -41zM434 750c-25 0 -45 18 -45 41s20 41 45 41s45 -18 45 -41s-20 -41 -45 -41zM191 390h343v-73h-343v-244h365v-73h-443v700h443v-73h-365v-237z" />
    <glyph glyph-name="uni0416" unicode="&#x416;" horiz-adv-x="1067" 
d="M931 0l-142 222c-46 71 -64 97 -136 97h-81v-319h-78v319h-81c-71 0 -89 -26 -136 -97l-142 -222h-89l161 249c44 69 68 98 105 110c-30 14 -53 43 -94 104l-154 237h89l135 -210c47 -72 65 -97 136 -97h70v307h78v-307h70c72 0 90 25 136 97l135 210h89l-153 -237
c-42 -61 -65 -90 -94 -104c37 -12 60 -41 105 -110l160 -249h-89z" />
    <glyph glyph-name="uni0417" unicode="&#x417;" horiz-adv-x="635" 
d="M234 399h95c122 0 151 56 151 115c0 69 -44 120 -151 120h-6c-76 0 -156 -33 -205 -90l-51 47c59 72 153 116 253 116h7c173 -1 227 -99 227 -184c0 -74 -35 -136 -111 -160c87 -19 135 -84 135 -172c0 -116 -84 -197 -253 -198h-6c-124 0 -222 58 -273 146l51 47
c41 -74 125 -120 225 -120h5c108 0 177 45 177 133c0 75 -48 127 -156 127h-114v73z" />
    <glyph glyph-name="uni0418" unicode="&#x418;" horiz-adv-x="736" 
d="M633 0h-78v547l-408 -547h-44v700h78v-547l409 547h43v-700z" />
    <glyph glyph-name="uni0419" unicode="&#x419;" horiz-adv-x="736" 
d="M368 750c-80 0 -143 55 -143 130h53c0 -44 39 -78 90 -78s91 34 91 78h52c0 -75 -63 -130 -143 -130zM633 0h-78v547l-408 -547h-44v700h78v-547l409 547h43v-700z" />
    <glyph glyph-name="uni041A" unicode="&#x41a;" horiz-adv-x="718" 
d="M583 0l-142 222c-47 71 -65 97 -136 97h-114v-319h-78v700h78v-307h103c72 0 89 25 136 97l135 210h89l-154 -237c-41 -61 -64 -90 -94 -104c37 -12 61 -41 105 -110l161 -249h-89z" />
    <glyph glyph-name="uni041B" unicode="&#x41b;" horiz-adv-x="715" 
d="M357 554l-225 -554h-86l290 700h44l289 -700h-86z" />
    <glyph glyph-name="uni041C" unicode="&#x41c;" horiz-adv-x="893" 
d="M781 0h-78v550l-261 -332l-261 332v-550h-78v700h44l295 -376l295 376h44v-700z" />
    <glyph glyph-name="uni041D" unicode="&#x41d;" horiz-adv-x="734" 
d="M632 0h-78v318h-373v-318h-78v700h78v-309h373v309h78v-700z" />
    <glyph glyph-name="uni041E" unicode="&#x41e;" horiz-adv-x="851" 
d="M425 707c197 0 357 -160 357 -357c0 -198 -160 -357 -357 -357s-356 159 -356 357c0 197 159 357 356 357zM425 634c-155 0 -278 -122 -278 -284c0 -163 123 -284 278 -284s279 121 279 284c0 162 -124 284 -279 284z" />
    <glyph glyph-name="uni041F" unicode="&#x41f;" horiz-adv-x="731" 
d="M628 0h-78v627h-369v-627h-78v700h525v-700z" />
    <glyph glyph-name="uni0420" unicode="&#x420;" horiz-adv-x="709" 
d="M113 700h221c178 0 306 -96 306 -257c0 -162 -128 -257 -306 -257h-143v-186h-78v700zM191 259h148c121 0 227 54 227 184c0 128 -106 184 -227 184h-148v-368z" />
    <glyph glyph-name="uni0421" unicode="&#x421;" horiz-adv-x="746" 
d="M425 707c105 0 199 -45 264 -117l-51 -46c-54 56 -129 90 -213 90c-155 0 -278 -122 -278 -284c0 -163 123 -284 278 -284c84 0 159 33 213 90l51 -48c-65 -71 -159 -115 -264 -115c-197 0 -356 159 -356 357c0 197 159 357 356 357z" />
    <glyph glyph-name="uni0422" unicode="&#x422;" horiz-adv-x="604" 
d="M341 627v-627h-78v627h-217v73h511v-73h-216z" />
    <glyph glyph-name="uni0423" unicode="&#x423;" horiz-adv-x="717" 
d="M253 0h-88l149 250l-268 450h89l224 -370l223 370h89z" />
    <glyph glyph-name="uni0424" unicode="&#x424;" horiz-adv-x="1228" 
d="M874 686c165 0 285 -130 285 -291c0 -162 -120 -291 -285 -291c-97 0 -181 54 -221 133v-237h-78v237c-40 -79 -124 -133 -221 -133c-166 0 -285 129 -285 291c0 161 119 291 285 291c97 0 181 -55 221 -133v147h78v-147c40 78 124 133 221 133zM360 178
c119 0 214 93 214 217s-95 217 -214 217s-213 -93 -213 -217s94 -217 213 -217zM868 178c119 0 213 93 213 217s-94 217 -213 217c-120 0 -214 -93 -214 -217s94 -217 214 -217z" />
    <glyph glyph-name="uni0425" unicode="&#x425;" horiz-adv-x="688" 
d="M343 291l-207 -291h-90l253 361l-240 339h90l196 -272l193 272h91l-241 -343l253 -357h-90z" />
    <glyph glyph-name="uni0427" unicode="&#x427;" horiz-adv-x="703" 
d="M590 0h-78v289c-35 -82 -114 -121 -199 -121c-139 0 -257 75 -257 285v247h78v-250c0 -157 83 -209 190 -209c93 0 188 59 188 211v248h78v-700z" />
    <glyph glyph-name="uni0426" unicode="&#x426;" horiz-adv-x="771" 
d="M725 -129h-78v129h-544v700h78v-627h371v627h78v-627h95v-202z" />
    <glyph glyph-name="uni0428" unicode="&#x428;" horiz-adv-x="1050" 
d="M944 0h-841v700h78v-627h303v627h78v-627h304v627h78v-700z" />
    <glyph glyph-name="uni0429" unicode="&#x429;" horiz-adv-x="1106" 
d="M1038 -129h-78v129h-857v700h78v-627h303v627h78v-627h304v627h78v-627h94v-202z" />
    <glyph glyph-name="uni042F" unicode="&#x42f;" horiz-adv-x="693" 
d="M580 0h-78v196h-144c-74 -1 -107 -16 -166 -107l-58 -89h-88l70 107c43 67 78 100 115 116c-106 31 -178 108 -178 225c0 156 124 252 302 252h225v-700zM502 627h-153c-121 0 -222 -56 -222 -179c0 -125 101 -179 222 -179h153v358z" />
    <glyph glyph-name="uni042C" unicode="&#x42c;" horiz-adv-x="682" 
d="M187 423h211c157 0 234 -82 234 -212c0 -129 -69 -211 -234 -211h-289v700h78v-277zM187 73h212c118 0 159 50 159 138c0 89 -49 139 -159 139h-212v-277z" />
    <glyph glyph-name="uni042A" unicode="&#x42a;" horiz-adv-x="714" 
d="M219 423h211c157 0 234 -82 234 -212c0 -129 -69 -211 -234 -211h-289v627h-95v73h173v-277zM219 73h212c118 0 159 50 159 138c0 89 -49 139 -159 139h-212v-277z" />
    <glyph glyph-name="uni042B" unicode="&#x42b;" horiz-adv-x="918" 
d="M187 423h211c157 0 234 -82 234 -212c0 -129 -69 -211 -234 -211h-289v700h78v-277zM806 0h-78v700h78v-700zM187 73h212c118 0 159 50 159 138c0 89 -49 139 -159 139h-212v-277z" />
    <glyph glyph-name="uni042D" unicode="&#x42d;" horiz-adv-x="746" 
d="M320 707c197 0 356 -160 356 -357c0 -198 -159 -357 -356 -357c-105 0 -199 44 -264 115l51 48c54 -57 129 -90 213 -90c143 0 259 106 272 248h-325v73h325c-13 141 -129 247 -272 247c-84 0 -159 -34 -213 -90l-51 46c65 72 159 117 264 117z" />
    <glyph glyph-name="uni042E" unicode="&#x42e;" horiz-adv-x="1091" 
d="M665 707c197 0 357 -160 357 -357c0 -198 -160 -357 -357 -357c-185 0 -336 140 -353 321h-125v-314h-78v700h78v-313h125c18 179 168 320 353 320zM665 66c155 0 279 121 279 284c0 162 -124 284 -279 284s-278 -122 -278 -284c0 -163 123 -284 278 -284z" />
    <glyph glyph-name="uni0416.ss01" horiz-adv-x="1067" 
d="M1012 700l-240 -344l248 -356h-89l-225 319h-134v-319h-78v319h-133l-225 -319h-90l248 356l-240 344h90l215 -307h135v307h78v-307h135l216 307h89z" />
    <glyph glyph-name="uni041A.ss01" horiz-adv-x="708" 
d="M191 319v-319h-78v700h78v-307h157l216 307h90l-240 -344l248 -356h-90l-225 319h-156z" />
    <glyph glyph-name="uni042F.ss01" horiz-adv-x="692" 
d="M580 0h-78v196h-151c-14 0 -29 2 -42 4l-169 -200h-89l180 216c-107 34 -178 114 -178 232c0 156 121 252 301 252h226v-700zM502 627h-154c-121 0 -221 -56 -221 -179c0 -125 100 -179 221 -179h154v358z" />
    <glyph glyph-name="uni0430" unicode="&#x430;" 
d="M571 0h-52l-3 113c-38 -71 -114 -119 -203 -119c-142 0 -250 114 -250 256s108 257 250 257c89 0 165 -49 203 -119l3 112h52v-500zM318 64c100 0 184 78 184 186s-84 187 -184 187c-99 0 -183 -79 -183 -187s84 -186 183 -186z" />
    <glyph glyph-name="uni0431" unicode="&#x431;" horiz-adv-x="638" 
d="M472 700h72c0 -77 -48 -111 -171 -111h-20c-135 0 -217 -56 -217 -179v-34c33 71 109 119 195 119c142 0 245 -107 245 -245c0 -142 -105 -258 -257 -258c-146 0 -256 110 -256 263v133c0 174 110 263 295 263c90 0 114 12 114 49zM319 428c-100 0 -184 -78 -184 -183
c0 -104 80 -183 184 -183c102 0 183 79 183 183c0 105 -84 183 -183 183z" />
    <glyph glyph-name="uni0432" unicode="&#x432;" horiz-adv-x="604" 
d="M93 500h262c114 0 161 -55 161 -129c0 -49 -21 -91 -74 -109c66 -16 97 -61 97 -120c0 -93 -54 -142 -182 -142h-264v500zM165 438v-151h186c68 0 91 33 91 75s-23 76 -92 76h-185zM165 62h193c79 0 107 34 107 85c0 50 -28 84 -107 84l-193 1v-170z" />
    <glyph glyph-name="uni0433" unicode="&#x433;" horiz-adv-x="511" 
d="M166 431v-431h-73v500h385v-69h-312z" />
    <glyph glyph-name="uni0434" unicode="&#x434;" horiz-adv-x="649" 
d="M612 -111h-72v111h-431v-111h-73v180h68l198 431h44l198 -431h68v-180zM324 388l-145 -319h291z" />
    <glyph glyph-name="uni0435" unicode="&#x435;" horiz-adv-x="622" 
d="M317 507c110 0 189 -58 225 -146c16 -39 19 -96 9 -128h-414c0 -108 79 -172 188 -173c65 0 124 20 173 54l39 -44c-55 -43 -126 -76 -212 -76c-155 1 -262 105 -262 256c0 142 101 257 254 257zM317 440c-101 0 -172 -72 -177 -158h345c1 17 -4 40 -11 57
c-25 60 -81 101 -157 101z" />
    <glyph glyph-name="uni0451" unicode="&#x451;" horiz-adv-x="614" 
d="M214 644c25 0 45 -18 45 -41s-20 -41 -45 -41s-45 18 -45 41s20 41 45 41zM422 644c25 0 45 -18 45 -41s-20 -41 -45 -41s-45 18 -45 41s20 41 45 41zM317 507c110 0 189 -58 225 -146c16 -39 19 -96 9 -128h-414c0 -108 79 -172 188 -173c65 0 124 20 173 54l39 -44
c-55 -43 -126 -76 -212 -76c-155 1 -262 105 -262 256c0 142 101 257 254 257zM317 440c-101 0 -172 -72 -177 -158h345c1 17 -4 40 -11 57c-25 60 -81 101 -157 101z" />
    <glyph glyph-name="uni0436" unicode="&#x436;" horiz-adv-x="871" 
d="M753 0l-82 126c-46 72 -64 97 -136 97h-64v-223h-72v223h-64c-72 0 -90 -25 -136 -97l-81 -126h-82l103 158c36 55 62 91 101 102c-32 14 -57 49 -90 98l-94 142h82l72 -110c46 -72 64 -97 136 -97h53v207h72v-207h53c72 0 90 25 136 97l72 110h82l-94 -142
c-33 -49 -58 -84 -89 -98c38 -11 64 -47 100 -102l103 -158h-81z" />
    <glyph glyph-name="uni0437" unicode="&#x437;" horiz-adv-x="561" 
d="M395 262c67 -16 98 -60 98 -120c0 -100 -87 -149 -202 -149h-17c-98 0 -186 48 -216 100l41 44c31 -45 99 -78 174 -78h16c74 0 131 29 131 92c0 50 -28 83 -107 84l-88 1v47h81c68 0 91 34 91 76c0 54 -51 82 -114 82h-12c-62 0 -120 -27 -156 -69l-40 43
c41 52 119 92 201 92h13c98 0 181 -49 181 -134c0 -49 -21 -92 -75 -111z" />
    <glyph glyph-name="uni0438" unicode="&#x438;" horiz-adv-x="635" 
d="M542 0h-72v378l-333 -378h-44v500h73v-378l333 378h43v-500z" />
    <glyph glyph-name="uni0439" unicode="&#x439;" horiz-adv-x="635" 
d="M317 558c-80 0 -143 56 -143 130h53c0 -44 39 -77 90 -77s91 33 91 77h52c0 -74 -63 -130 -143 -130zM542 0h-72v378l-333 -378h-44v500h73v-378l333 378h43v-500z" />
    <glyph glyph-name="uni043A" unicode="&#x43a;" horiz-adv-x="579" 
d="M465 0l-82 126c-46 72 -64 97 -136 97h-76v-223h-73v500h73v-207h65c72 0 90 25 136 97l72 110h82l-94 -142c-33 -49 -58 -84 -90 -98c39 -11 65 -47 101 -102l103 -158h-81z" />
    <glyph glyph-name="uni043B" unicode="&#x43b;" horiz-adv-x="577" 
d="M288 388l-175 -388h-77l230 500h44l231 -500h-77z" />
    <glyph glyph-name="uni043C" unicode="&#x43c;" horiz-adv-x="699" 
d="M607 0h-73v378l-184 -209l-184 209v-378h-73v500h44l213 -242l213 242h44v-500z" />
    <glyph glyph-name="uni043D" unicode="&#x43d;" horiz-adv-x="639" 
d="M546 0h-73v217h-307v-217h-73v500h73v-213h307v213h73v-500z" />
    <glyph glyph-name="uni043E" unicode="&#x43e;" horiz-adv-x="638" 
d="M319 507c142 0 257 -115 257 -257s-115 -256 -257 -256s-256 114 -256 256s114 257 256 257zM318 437c-99 0 -183 -79 -183 -187s84 -186 183 -186c100 0 184 78 184 186s-84 187 -184 187z" />
    <glyph glyph-name="uni043F" unicode="&#x43f;" horiz-adv-x="639" 
d="M546 0h-72v431h-308v-431h-73v500h453v-500z" />
    <glyph glyph-name="uni0440" unicode="&#x440;" horiz-adv-x="669" 
d="M356 507c142 0 250 -115 250 -257s-108 -256 -250 -256c-81 0 -151 44 -185 108v-286h-73v684h52l3 -113c38 71 114 120 203 120zM350 437c-99 0 -184 -79 -184 -187s85 -187 184 -187s183 79 183 187s-84 187 -183 187z" />
    <glyph glyph-name="uni0441" unicode="&#x441;" horiz-adv-x="574" 
d="M319 507c79 0 150 -36 197 -93l-44 -47c-42 46 -94 70 -153 70c-100 0 -183 -79 -183 -187s83 -186 183 -186c60 0 111 23 153 69l44 -47c-47 -56 -118 -92 -197 -92c-142 0 -256 114 -256 256s114 257 256 257z" />
    <glyph glyph-name="uni0442" unicode="&#x442;" horiz-adv-x="512" 
d="M292 431v-431h-73v431h-183v69h439v-69h-183z" />
    <glyph glyph-name="uni0443" unicode="&#x443;" horiz-adv-x="653" 
d="M566 500v-437c0 -151 -86 -253 -243 -254c-88 0 -160 31 -215 76l42 46c50 -34 104 -56 173 -56c110 0 169 63 169 174v59c-37 -78 -116 -107 -181 -107c-137 0 -218 88 -218 238v261h73v-258c0 -119 61 -171 155 -171c104 0 172 71 172 198v231h73z" />
    <glyph glyph-name="uni0444" unicode="&#x444;" horiz-adv-x="1068" 
d="M755 507c142 0 250 -115 250 -257s-108 -256 -250 -256c-80 0 -150 43 -185 107v-272h-72v271c-35 -63 -105 -106 -185 -106c-142 0 -250 114 -250 256s108 257 250 257c87 0 162 -48 200 -117l2 110h39l1 -110c38 69 113 117 200 117zM318 63c100 0 184 79 184 187
s-84 187 -184 187c-99 0 -183 -79 -183 -187s84 -187 183 -187zM749 63c99 0 183 79 183 187s-84 187 -183 187s-184 -79 -184 -187s85 -187 184 -187z" />
    <glyph glyph-name="uni0445" unicode="&#x445;" horiz-adv-x="576" 
d="M286 199l-165 -199h-85l209 258l-198 242h84l158 -185l155 185h84l-198 -245l209 -255h-85z" />
    <glyph glyph-name="uni0447" unicode="&#x447;" horiz-adv-x="650" 
d="M557 0h-72v197c-33 -56 -94 -86 -171 -86c-168 0 -226 101 -226 251v138h73v-134c0 -120 38 -186 163 -186c123 0 161 80 161 168v152h72v-500z" />
    <glyph glyph-name="uni0446" unicode="&#x446;" horiz-adv-x="669" 
d="M633 -111h-73v111h-467v500h73v-431h304v431h72v-431h91v-180z" />
    <glyph glyph-name="uni0448" unicode="&#x448;" horiz-adv-x="916" 
d="M824 0h-731v500h73v-431h256v431h73v-431h256v431h73v-500z" />
    <glyph glyph-name="uni0449" unicode="&#x449;" horiz-adv-x="950" 
d="M914 -111h-72v111h-749v500h73v-431h256v431h73v-431h256v431h73v-431h90v-180z" />
    <glyph glyph-name="uni044C" unicode="&#x44c;" horiz-adv-x="592" 
d="M166 338h172c156 0 198 -89 198 -168c0 -81 -42 -170 -198 -170h-245v500h73v-162zM165 68h179c91 0 119 46 119 102c0 54 -28 100 -119 100h-179v-202z" />
    <glyph glyph-name="uni044A" unicode="&#x44a;" horiz-adv-x="660" 
d="M201 338h173c156 0 198 -89 198 -168c0 -81 -42 -170 -198 -170h-245v431h-93v69h165v-162zM202 68h179c91 0 119 46 119 102c0 54 -28 100 -119 100h-179v-202z" />
    <glyph glyph-name="uni044B" unicode="&#x44b;" horiz-adv-x="763" 
d="M166 338h172c156 0 198 -89 198 -168c0 -81 -42 -170 -198 -170h-245v500h73v-162zM671 0h-73v500h73v-500zM165 68h179c91 0 119 46 119 102c0 54 -28 100 -119 100h-179v-202z" />
    <glyph glyph-name="uni044D" unicode="&#x44d;" horiz-adv-x="574" 
d="M255 507c142 0 256 -115 256 -257s-114 -256 -256 -256c-79 0 -150 36 -197 92l44 47c42 -46 94 -69 153 -69c93 0 170 69 179 162h-214v49h214c-9 92 -86 162 -179 162c-59 0 -110 -24 -153 -70l-44 47c47 57 118 93 197 93z" />
    <glyph glyph-name="uni044E" unicode="&#x44e;" horiz-adv-x="834" 
d="M514 507c142 0 257 -115 257 -257s-115 -256 -257 -256c-130 0 -237 97 -252 223h-96v-217h-73v500h73v-213h98c15 124 121 220 250 220zM514 64c100 0 184 78 184 186s-84 187 -184 187c-99 0 -183 -79 -183 -187s84 -186 183 -186z" />
    <glyph glyph-name="uni044F" unicode="&#x44f;" horiz-adv-x="583" 
d="M501 0h-72v163h-122c-66 -2 -84 -28 -130 -98l-44 -65h-80l53 79c29 44 48 76 79 95c-80 18 -127 81 -127 153c0 91 61 173 207 173h236v-500zM429 430h-171c-82 0 -128 -39 -128 -103c0 -62 46 -102 128 -102h171v205z" />
    <glyph glyph-name="uni0436.ss01" horiz-adv-x="859" 
d="M465 220v-220h-72v220h-96l-179 -220h-82l203 255l-194 245h83l169 -210h96v210h72v-210h96l170 210h82l-194 -245l203 -255h-82l-179 220h-96z" />
    <glyph glyph-name="uni043A.ss01" horiz-adv-x="582" 
d="M171 220v-220h-73v500h73v-210h115l169 210h82l-194 -245l203 -255h-82l-179 220h-114z" />
    <glyph glyph-name="uni044F.ss01" horiz-adv-x="577" 
d="M495 0h-73v163h-161l-134 -163h-81l139 173c-84 17 -134 81 -134 154c0 91 62 173 207 173h237v-500zM423 430h-171c-82 0 -128 -39 -128 -103c0 -62 46 -102 128 -102h171v205z" />
    <glyph glyph-name="zero" unicode="0" horiz-adv-x="838" 
d="M418 693c194 0 351 -157 351 -350c0 -194 -157 -350 -351 -350c-193 0 -349 156 -349 350c0 193 156 350 349 350zM419 619c-151 0 -271 -118 -271 -276s120 -276 271 -276s271 118 271 276s-120 276 -271 276z" />
    <glyph glyph-name="one" unicode="1" horiz-adv-x="377" 
d="M264 0h-78v542l-88 -106l-52 40l174 209h44v-685z" />
    <glyph glyph-name="two" unicode="2" horiz-adv-x="632" 
d="M575 0h-519v44l308 266c82 71 118 113 118 176c0 84 -76 133 -160 133l-9 1c-72 0 -138 -30 -191 -95l-51 47c64 80 152 121 247 121h11c135 -1 230 -86 230 -194c0 -92 -55 -156 -174 -255l-194 -171h384v-73z" />
    <glyph glyph-name="three" unicode="3" horiz-adv-x="642" 
d="M561 642l-260 -231c22 6 46 8 79 8c136 -8 205 -90 205 -196c0 -131 -91 -227 -248 -230h-9c-128 1 -222 59 -272 146l51 47c52 -80 123 -120 222 -120h6c103 2 176 67 176 167c0 85 -52 141 -179 141c-45 0 -85 -13 -115 -27l-41 30l265 235h-323v73h443v-43z" />
    <glyph glyph-name="four" unicode="4" horiz-adv-x="629" 
d="M504 136v-136h-78v136h-380v44l414 505h44v-476h79v-73h-79zM426 551l-284 -342h284v342z" />
    <glyph glyph-name="five" unicode="5" horiz-adv-x="640" 
d="M520 612h-342v-218c36 26 100 47 177 47c144 0 228 -89 228 -220c0 -121 -91 -225 -249 -228h-10c-128 1 -218 59 -268 146l51 47c52 -80 120 -120 220 -120h5c99 2 177 63 177 160c0 101 -66 157 -181 157c-73 0 -146 -31 -181 -61l-40 30v333h413v-73z" />
    <glyph glyph-name="six" unicode="6" horiz-adv-x="623" 
d="M331 693h6c99 -1 164 -40 208 -96l-50 -46c-45 46 -92 68 -158 68l-6 1c-145 0 -193 -138 -199 -263c32 63 103 109 195 109c135 0 239 -95 239 -234c0 -127 -95 -239 -251 -239c-158 0 -258 119 -258 272l-1 60c0 184 78 368 275 368zM311 399
c-103 0 -176 -72 -176 -157c0 -94 64 -175 176 -175c104 0 177 71 177 165c0 95 -73 167 -177 167z" />
    <glyph glyph-name="seven" unicode="7" horiz-adv-x="547" 
d="M500 642l-368 -642h-85l352 612h-353v73h454v-43z" />
    <glyph glyph-name="eight" unicode="8" horiz-adv-x="605" 
d="M407 366c83 -23 141 -85 141 -174c0 -120 -95 -198 -242 -199h-5c-149 0 -245 78 -245 199c0 89 57 151 140 174c-62 22 -114 69 -114 154c0 102 89 174 217 174h9c126 -2 213 -73 213 -174c0 -85 -52 -132 -114 -154zM157 507c0 -82 69 -116 145 -116
c75 0 145 34 145 116s-70 117 -145 117c-76 0 -145 -35 -145 -117zM302 65c98 0 171 51 171 139s-69 137 -171 139c-60 0 -171 -26 -171 -139c0 -88 72 -139 171 -139z" />
    <glyph glyph-name="nine" unicode="9" horiz-adv-x="623" 
d="M292 -7h-7c-99 0 -163 40 -208 95l50 47c46 -46 93 -69 159 -69h6c145 0 193 138 199 263c-33 -63 -103 -109 -196 -109c-135 0 -239 94 -239 233c0 127 96 240 251 240c158 0 259 -120 259 -273v-59c0 -184 -78 -368 -274 -368zM312 287c103 0 176 72 176 157
c0 94 -63 175 -176 175c-103 0 -177 -72 -177 -166s74 -166 177 -166z" />
    <glyph glyph-name="zero.lf" horiz-adv-x="852" 
d="M425 707c198 0 358 -160 358 -357c0 -198 -160 -357 -358 -357c-197 0 -356 159 -356 357c0 197 159 357 356 357zM425 634c-155 0 -278 -122 -278 -284c0 -163 123 -284 278 -284c156 0 280 121 280 284c0 162 -124 284 -280 284z" />
    <glyph glyph-name="one.lf" horiz-adv-x="377" 
d="M264 0h-78v557l-88 -106l-52 40l174 209h44v-700z" />
    <glyph glyph-name="two.lf" horiz-adv-x="632" 
d="M575 0h-519v44l308 275c88 81 118 119 118 181c0 85 -76 133 -159 134h-10c-72 0 -138 -30 -191 -95l-51 47c64 80 152 121 247 121h11c135 -1 230 -85 230 -193c0 -93 -51 -154 -174 -261l-194 -180h384v-73z" />
    <glyph glyph-name="three.lf" horiz-adv-x="642" 
d="M561 656l-262 -245c23 5 47 8 80 8c137 -8 206 -90 206 -196c0 -130 -91 -227 -247 -230h-10c-128 1 -222 59 -272 146l51 47c52 -80 123 -120 222 -120h7c102 2 175 67 175 167c0 84 -54 141 -171 141c-53 0 -93 -13 -123 -27l-41 30l267 250h-325v73h443v-44z" />
    <glyph glyph-name="four.lf" horiz-adv-x="629" 
d="M504 142v-142h-78v142h-380v43l414 515h44v-485h79v-73h-79zM426 566l-284 -351h284v351z" />
    <glyph glyph-name="five.lf" horiz-adv-x="640" 
d="M520 627h-342v-224c36 26 100 48 177 48c144 0 228 -89 228 -221c0 -130 -91 -236 -249 -237h-10c-128 1 -218 59 -268 146l51 47c52 -80 120 -120 220 -120h7c98 2 175 64 175 169c0 100 -67 157 -173 157c-82 0 -153 -30 -189 -61l-40 30v339h413v-73z" />
    <glyph glyph-name="six.lf" horiz-adv-x="623" 
d="M327 466c135 0 239 -95 239 -234c0 -127 -95 -239 -251 -239c-158 0 -258 119 -258 272l-1 65c0 192 77 376 272 377h7c100 0 165 -39 210 -95l-50 -47c-45 46 -92 69 -158 69h-6c-147 0 -196 -140 -200 -278c32 63 103 110 196 110zM311 67c104 0 177 71 177 165
c0 95 -73 167 -177 167c-103 0 -176 -72 -176 -157c0 -94 64 -175 176 -175z" />
    <glyph glyph-name="seven.lf" horiz-adv-x="551" 
d="M504 656l-374 -656h-84l358 627h-354v73h454v-44z" />
    <glyph glyph-name="eight.lf" horiz-adv-x="605" 
d="M407 376c83 -24 141 -86 141 -178c0 -125 -94 -203 -240 -205h-7c-149 0 -245 78 -245 205c0 92 58 154 141 178c-63 21 -115 69 -115 153c0 104 85 175 209 178h13c128 0 217 -71 217 -178c0 -84 -52 -132 -114 -153zM157 517c0 -82 69 -117 145 -117
c75 0 145 35 145 117s-70 117 -145 117c-76 0 -145 -35 -145 -117zM302 66c98 0 171 51 171 143s-69 141 -171 143c-60 0 -171 -26 -171 -143c0 -92 72 -143 171 -143z" />
    <glyph glyph-name="nine.lf" horiz-adv-x="623" 
d="M295 234c-135 0 -239 95 -239 234c0 127 96 239 251 239c158 0 259 -119 259 -272v-64c0 -193 -77 -377 -272 -378h-7c-100 0 -165 40 -210 95l50 47c45 -46 92 -69 158 -69h7c146 0 195 140 199 279c-32 -64 -103 -111 -196 -111zM312 634c-103 0 -177 -72 -177 -166
s74 -167 177 -167s176 73 176 157c0 94 -63 176 -176 176z" />
    <glyph glyph-name="zero.osf" horiz-adv-x="692" 
d="M346 544c152 0 277 -123 277 -275c0 -153 -125 -276 -277 -276c-153 0 -277 123 -277 276c0 152 124 275 277 275zM346 471c-110 0 -198 -90 -198 -202c0 -113 88 -202 198 -202s199 89 199 202c0 112 -89 202 -199 202z" />
    <glyph glyph-name="one.osf" horiz-adv-x="377" 
d="M264 0h-78v394l-88 -106l-52 40l174 209h44v-537z" />
    <glyph glyph-name="two.osf" horiz-adv-x="632" 
d="M575 0h-519v44l330 199c75 47 96 73 96 123c0 56 -56 105 -147 105h-11c-72 0 -149 -30 -202 -94l-51 47c64 80 159 120 254 120h11c148 -1 223 -87 223 -169c0 -81 -42 -128 -155 -188l-185 -114h356v-73z" />
    <glyph glyph-name="three.osf" horiz-adv-x="642" 
d="M561 494l-262 -241c25 6 50 8 85 7c133 -9 201 -90 201 -194c0 -122 -91 -218 -248 -221h-9c-128 1 -222 59 -272 146l51 47c52 -80 123 -120 222 -120h7c102 1 175 67 175 158c0 84 -54 141 -171 141c-53 0 -93 -13 -123 -28l-41 31l266 244h-324v73h443v-43z" />
    <glyph glyph-name="four.osf" horiz-adv-x="629" 
d="M504 -12v-136h-78v136h-380v44l414 505h44v-476h79v-73h-79zM426 403l-284 -342h284v342z" />
    <glyph glyph-name="five.osf" horiz-adv-x="640" 
d="M520 464h-342v-218c36 26 100 47 177 47c144 0 228 -89 228 -220c0 -122 -92 -226 -250 -228h-9c-128 1 -218 59 -268 146l51 47c52 -80 120 -120 220 -120h5c99 1 177 63 177 160c0 100 -67 157 -173 157c-82 0 -153 -30 -189 -61l-40 30v333h413v-73z" />
    <glyph glyph-name="six.osf" horiz-adv-x="623" 
d="M327 466c135 0 239 -95 239 -234c0 -127 -95 -239 -251 -239c-158 0 -258 119 -258 272l-1 60c0 184 78 368 275 368h6c99 -1 164 -40 208 -96l-50 -46c-46 46 -93 68 -159 69h-5c-145 0 -193 -138 -199 -263c32 63 103 109 195 109zM311 67c104 0 177 71 177 165
c0 95 -73 167 -177 167c-103 0 -176 -72 -176 -157c0 -94 64 -175 176 -175z" />
    <glyph glyph-name="seven.osf" horiz-adv-x="547" 
d="M500 494l-368 -642h-85l352 612h-353v73h454v-43z" />
    <glyph glyph-name="eight.osf" horiz-adv-x="605" 
d="M407 366c83 -23 141 -85 141 -174c0 -121 -97 -199 -245 -199h-5c-147 1 -242 79 -242 199c0 89 57 151 140 174c-62 22 -114 69 -114 154c0 101 88 173 214 174h8c128 0 217 -72 217 -174c0 -85 -52 -132 -114 -154zM157 507c0 -82 69 -116 145 -116
c75 0 145 34 145 116s-70 117 -145 117c-76 0 -145 -35 -145 -117zM302 65c98 0 171 51 171 139s-69 137 -171 139c-60 0 -171 -26 -171 -139c0 -88 72 -139 171 -139z" />
    <glyph glyph-name="nine.osf" horiz-adv-x="623" 
d="M295 72c-135 0 -239 94 -239 233c0 127 96 239 251 239c158 0 259 -119 259 -272v-59c0 -185 -78 -368 -274 -368h-7c-99 0 -163 40 -208 95l50 46c46 -45 93 -68 159 -68h6c145 0 193 138 199 262c-33 -63 -103 -108 -196 -108zM312 471c-103 0 -177 -72 -177 -166
s74 -167 177 -167s176 73 176 157c0 94 -63 176 -176 176z" />
    <glyph glyph-name="zero.tf" horiz-adv-x="839" 
d="M419 707c198 0 358 -160 358 -357c0 -198 -160 -357 -358 -357c-197 0 -356 159 -356 357c0 197 159 357 356 357zM419 634c-155 0 -278 -122 -278 -284c0 -163 123 -284 278 -284c156 0 280 121 280 284c0 162 -124 284 -280 284z" />
    <glyph glyph-name="one.tf" horiz-adv-x="343" 
d="M281 0h-78v557l-88 -106l-52 40l174 209h44v-700z" />
    <glyph glyph-name="two.tf" horiz-adv-x="645" 
d="M582 0h-519v44l308 275c88 81 118 119 118 181c0 85 -76 133 -159 134h-10c-72 0 -138 -30 -191 -95l-51 47c64 80 152 121 247 121h11c135 -1 230 -85 230 -193c0 -93 -51 -154 -174 -261l-194 -180h384v-73z" />
    <glyph glyph-name="three.tf" horiz-adv-x="654" 
d="M568 656l-262 -245c23 5 47 8 80 8c137 -8 206 -90 206 -196c0 -130 -91 -227 -247 -230h-10c-128 1 -222 59 -272 146l51 47c52 -80 123 -120 222 -120h7c102 2 175 67 175 167c0 84 -54 141 -171 141c-53 0 -93 -13 -123 -27l-41 30l267 250h-325v73h443v-44z" />
    <glyph glyph-name="four.tf" horiz-adv-x="662" 
d="M521 142v-142h-78v142h-380v43l414 515h44v-485h79v-73h-79zM442 566l-284 -351h284v351z" />
    <glyph glyph-name="five.tf" horiz-adv-x="653" 
d="M527 627h-342v-224c36 26 100 48 177 48c144 0 228 -89 228 -221c0 -130 -91 -236 -249 -237h-10c-128 1 -218 59 -268 146l51 47c52 -80 120 -120 220 -120h7c98 2 175 64 175 169c0 100 -67 157 -173 157c-82 0 -153 -30 -189 -61l-40 30v339h413v-73z" />
    <glyph glyph-name="six.tf" horiz-adv-x="636" 
d="M334 466c135 0 239 -95 239 -234c0 -127 -95 -239 -251 -239c-158 0 -258 119 -258 272l-1 65c0 192 77 376 272 377h7c100 0 165 -39 210 -95l-50 -47c-45 46 -92 69 -158 69h-6c-147 0 -196 -140 -200 -278c32 63 103 110 196 110zM318 67c104 0 177 71 177 165
c0 95 -73 167 -177 167c-103 0 -176 -72 -176 -157c0 -94 64 -175 176 -175z" />
    <glyph glyph-name="seven.tf" horiz-adv-x="584" 
d="M521 656l-374 -656h-84l358 627h-354v73h454v-44z" />
    <glyph glyph-name="eight.tf" horiz-adv-x="617" 
d="M414 376c83 -24 141 -86 141 -178c0 -125 -94 -203 -240 -205h-7c-149 0 -245 78 -245 205c0 92 58 154 141 178c-63 21 -115 69 -115 153c0 104 85 175 209 178h13c128 0 217 -71 217 -178c0 -84 -52 -132 -114 -153zM164 517c0 -82 69 -117 145 -117
c75 0 145 35 145 117s-70 117 -145 117c-76 0 -145 -35 -145 -117zM309 66c98 0 171 51 171 143s-69 141 -171 143c-60 0 -171 -26 -171 -143c0 -92 72 -143 171 -143z" />
    <glyph glyph-name="nine.tf" horiz-adv-x="636" 
d="M302 234c-135 0 -239 95 -239 234c0 127 96 239 251 239c158 0 259 -119 259 -272v-64c0 -193 -77 -377 -272 -378h-7c-100 0 -165 40 -210 95l50 47c45 -46 92 -69 158 -69h7c146 0 195 140 199 279c-32 -64 -103 -111 -196 -111zM318 634c-103 0 -177 -72 -177 -166
s74 -167 177 -167s176 73 176 157c0 94 -63 176 -176 176z" />
    <glyph glyph-name="zero.tosf" horiz-adv-x="679" 
d="M340 547c152 0 277 -124 277 -276c0 -153 -125 -275 -277 -275c-153 0 -277 122 -277 275c0 152 124 276 277 276zM339 473c-110 0 -198 -90 -198 -202s88 -202 198 -202s199 90 199 202s-89 202 -199 202z" />
    <glyph glyph-name="one.tosf" horiz-adv-x="343" 
d="M281 0h-78v396l-88 -105l-52 40l174 209h44v-540z" />
    <glyph glyph-name="two.tosf" horiz-adv-x="645" 
d="M582 0h-519v44l330 199c75 47 96 73 96 123c0 56 -56 105 -147 105h-11c-72 0 -149 -30 -202 -94l-51 47c64 80 159 120 254 120h11c148 -1 223 -87 223 -169c0 -81 -42 -128 -155 -188l-185 -114h356v-73z" />
    <glyph glyph-name="three.tosf" horiz-adv-x="654" 
d="M568 494l-262 -241c25 6 50 8 85 7c133 -9 201 -90 201 -194c0 -122 -91 -218 -248 -221h-9c-128 1 -222 59 -272 146l51 47c52 -80 123 -120 222 -120h7c102 1 175 67 175 158c0 84 -54 141 -171 141c-53 0 -93 -13 -123 -28l-41 31l266 244h-324v73h443v-43z" />
    <glyph glyph-name="four.tosf" horiz-adv-x="662" 
d="M521 -12v-136h-78v136h-380v44l414 505h44v-476h79v-73h-79zM442 403l-284 -342h284v342z" />
    <glyph glyph-name="five.tosf" horiz-adv-x="653" 
d="M527 464h-342v-218c36 26 100 47 177 47c144 0 228 -89 228 -220c0 -122 -92 -226 -250 -228h-9c-128 1 -218 59 -268 146l51 47c52 -80 120 -120 220 -120h5c99 1 177 63 177 160c0 100 -67 157 -173 157c-82 0 -153 -30 -189 -61l-40 30v333h413v-73z" />
    <glyph glyph-name="six.tosf" horiz-adv-x="636" 
d="M334 466c135 0 239 -95 239 -234c0 -127 -95 -239 -251 -239c-158 0 -258 119 -258 272l-1 60c0 184 78 368 275 368h6c99 -1 164 -40 208 -96l-50 -46c-46 46 -93 68 -159 69h-5c-145 0 -193 -138 -199 -263c32 63 103 109 195 109zM318 67c104 0 177 71 177 165
c0 95 -73 167 -177 167c-103 0 -176 -72 -176 -157c0 -94 64 -175 176 -175z" />
    <glyph glyph-name="seven.tosf" horiz-adv-x="579" 
d="M517 494l-368 -642h-85l352 612h-353v73h454v-43z" />
    <glyph glyph-name="eight.tosf" horiz-adv-x="617" 
d="M414 366c83 -23 141 -85 141 -174c0 -121 -97 -199 -245 -199h-5c-147 1 -242 79 -242 199c0 89 57 151 140 174c-62 22 -114 69 -114 154c0 101 88 173 214 174h8c128 0 217 -72 217 -174c0 -85 -52 -132 -114 -154zM164 507c0 -82 69 -116 145 -116
c75 0 145 34 145 116s-70 117 -145 117c-76 0 -145 -35 -145 -117zM309 65c98 0 171 51 171 139s-69 137 -171 139c-60 0 -171 -26 -171 -139c0 -88 72 -139 171 -139z" />
    <glyph glyph-name="nine.tosf" horiz-adv-x="636" 
d="M302 72c-135 0 -239 94 -239 233c0 127 96 239 251 239c158 0 259 -119 259 -272v-59c0 -185 -78 -368 -274 -368h-7c-99 0 -163 40 -208 95l50 46c46 -45 93 -68 159 -68h6c145 0 193 138 199 262c-33 -63 -103 -108 -196 -108zM318 471c-103 0 -177 -72 -177 -166
s74 -167 177 -167s176 73 176 157c0 94 -63 176 -176 176z" />
    <glyph glyph-name="fraction" unicode="&#x2044;" horiz-adv-x="472" 
d="M425 700l-330 -700h-49l330 700h49z" />
    <glyph glyph-name="onehalf" unicode="&#xbd;" horiz-adv-x="772" 
d="M202 382h-54v236l-54 -64l-31 23l103 123h36v-318zM199 0h-49l330 700h49zM709 0h-293v26l174 116c37 24 58 44 58 73s-29 61 -78 61h-6c-47 0 -86 -28 -105 -49l-35 32c35 36 84 67 149 67h6c76 -1 122 -50 122 -101c0 -53 -38 -83 -92 -116l-94 -59h194v-50z" />
    <glyph glyph-name="onequarter" unicode="&#xbc;" horiz-adv-x="704" 
d="M148 618l-54 -64l-31 23l103 123h36v-318h-54v236zM199 0h-49l330 700h49zM600 63v-63h-54v63h-187v26l207 229h34v-210h41v-45h-41zM547 243l-125 -135h125v135z" />
    <glyph glyph-name="threequarters" unicode="&#xbe;" horiz-adv-x="804" 
d="M330 667l-129 -100c10 1 24 2 44 0c70 -6 104 -41 104 -88c0 -56 -50 -104 -134 -104h-4c-76 0 -123 35 -148 66l32 29c14 -15 45 -47 108 -47c53 0 93 28 93 64c0 30 -30 54 -84 54c-31 -1 -44 -4 -57 -10l-22 17l130 105h-166v47h233v-33zM299 0h-49l330 700h49z
M701 63v-63h-54v63h-187v26l207 229h34v-210h41v-45h-41zM647 243l-125 -135h125v135z" />
    <glyph glyph-name="oneeighth" unicode="&#x215b;" horiz-adv-x="753" 
d="M148 382v236l-54 -64l-31 23l103 123h36v-318h-54zM199 0h-49l330 700h49zM628 171c38 -14 63 -43 63 -82c0 -56 -48 -95 -130 -96h-3c-83 0 -132 39 -132 96c0 39 25 68 62 82c-28 12 -49 34 -49 71c0 47 43 82 115 83h5c74 0 119 -35 119 -83c0 -37 -22 -59 -50 -71z
M558 185c26 0 72 9 72 51c0 33 -32 50 -72 50c-39 0 -71 -17 -71 -50s31 -50 71 -51zM558 34c49 0 84 23 84 61s-35 61 -84 61c-50 0 -84 -23 -84 -61s34 -61 84 -61z" />
    <glyph glyph-name="threeeighths" unicode="&#x215c;" horiz-adv-x="853" 
d="M330 667l-129 -100c10 1 24 2 44 0c70 -6 104 -41 104 -88c0 -56 -50 -104 -134 -104h-4c-76 0 -123 35 -148 66l32 29c14 -15 45 -47 108 -47c53 0 93 28 93 64c0 30 -30 54 -84 54c-31 -1 -44 -4 -57 -10l-22 17l130 105h-166v47h233v-33zM299 0h-49l330 700h49z
M728 171c38 -14 63 -43 63 -82c0 -56 -48 -95 -130 -96h-3c-83 0 -132 39 -132 96c0 39 25 68 62 82c-28 12 -49 34 -49 71c0 47 43 82 115 83h5c74 0 119 -35 119 -83c0 -37 -22 -59 -50 -71zM658 185c26 0 72 9 72 51c0 33 -32 50 -72 50c-39 0 -71 -17 -71 -50
s31 -50 71 -51zM658 34c49 0 84 23 84 61s-35 61 -84 61c-50 0 -84 -23 -84 -61s34 -61 84 -61z" />
    <glyph glyph-name="fiveeighths" unicode="&#x215d;" horiz-adv-x="836" 
d="M323 653h-182v-89c18 9 48 16 84 16c81 0 124 -40 124 -101c0 -56 -50 -103 -133 -104h-5c-76 0 -123 35 -148 66l32 29c14 -15 45 -47 108 -47c53 0 93 28 93 64s-30 60 -84 61c-34 0 -67 -6 -89 -20l-25 14v158h225v-47zM282 0h-49l330 700h49zM710 171
c38 -14 63 -43 63 -82c0 -56 -48 -95 -130 -96h-3c-83 0 -132 39 -132 96c0 39 25 68 62 82c-28 12 -49 34 -49 71c0 47 43 82 115 83h5c74 0 119 -35 119 -83c0 -37 -22 -59 -50 -71zM640 185c26 0 72 9 72 51c0 33 -32 50 -72 50c-39 0 -71 -17 -71 -50s31 -50 71 -51z
M641 34c49 0 84 23 84 61s-35 61 -84 61c-50 0 -84 -23 -84 -61s34 -61 84 -61z" />
    <glyph glyph-name="seveneighths" unicode="&#x215e;" horiz-adv-x="737" 
d="M63 382l175 271h-168v47h235v-30l-187 -288h-55zM183 0h-49l330 700h49zM611 171c38 -14 63 -43 63 -82c0 -56 -48 -95 -130 -96h-3c-83 0 -132 39 -132 96c0 39 25 68 62 82c-28 12 -49 34 -49 71c0 47 43 82 115 83h5c74 0 119 -35 119 -83c0 -37 -22 -59 -50 -71z
M541 185c26 0 72 9 72 51c0 33 -32 50 -72 50c-39 0 -71 -17 -71 -50s31 -50 71 -51zM542 34c49 0 84 23 84 61s-35 61 -84 61c-50 0 -84 -23 -84 -61s34 -61 84 -61z" />
    <glyph glyph-name="zero.dnom" horiz-adv-x="418" 
d="M209 325c95 0 170 -74 170 -166s-75 -166 -170 -166s-170 74 -170 166s75 166 170 166zM209 275c-68 0 -115 -47 -115 -116s47 -116 115 -116c67 0 115 47 115 116s-48 116 -115 116z" />
    <glyph glyph-name="one.dnom" horiz-adv-x="232" 
d="M185 0h-54v236l-54 -64l-31 23l103 123h36v-318z" />
    <glyph glyph-name="two.dnom" horiz-adv-x="386" 
d="M339 0h-293v26l174 116c37 24 58 44 58 73s-29 61 -78 61h-6c-47 0 -86 -28 -105 -49l-35 32c35 36 84 67 149 67h6c76 -1 122 -50 122 -101c0 -53 -38 -83 -92 -116l-94 -59h194v-50z" />
    <glyph glyph-name="three.dnom" horiz-adv-x="379" 
d="M313 286l-129 -100c10 1 24 1 44 0c70 -7 104 -42 104 -88c0 -57 -50 -105 -134 -105h-4c-76 1 -123 36 -148 66l32 30c14 -16 45 -48 108 -48c53 0 93 28 93 64c0 31 -30 55 -84 54c-31 0 -44 -4 -57 -10l-22 18l130 104h-166v47h233v-32z" />
    <glyph glyph-name="four.dnom" horiz-adv-x="374" 
d="M287 63v-63h-54v63h-187v26l207 229h34v-210h41v-45h-41zM234 243l-125 -135h125v135z" />
    <glyph glyph-name="five.dnom" horiz-adv-x="379" 
d="M306 271h-182v-89c18 9 48 17 84 17c81 0 124 -41 124 -101c0 -56 -50 -104 -133 -105h-5c-76 1 -123 36 -148 66l32 30c14 -16 45 -48 108 -48c53 0 93 28 93 64s-30 61 -84 61c-34 0 -67 -6 -89 -19l-25 14v157h225v-47z" />
    <glyph glyph-name="six.dnom" horiz-adv-x="366" 
d="M193 218c72 0 126 -45 126 -111c0 -61 -51 -114 -135 -114c-90 0 -138 57 -138 129v29c0 87 39 174 147 174h4c52 0 86 -20 107 -45l-29 -27c-17 15 -41 31 -78 31h-4c-65 0 -93 -56 -98 -108c19 25 53 42 98 42zM183 36c51 0 86 31 86 71s-35 71 -86 71s-85 -31 -85 -67
c0 -40 30 -75 85 -75z" />
    <glyph glyph-name="seven.dnom" horiz-adv-x="334" 
d="M288 289l-187 -289h-55l175 271h-168v47h235v-29z" />
    <glyph glyph-name="eight.dnom" horiz-adv-x="357" 
d="M248 171c38 -14 63 -43 63 -82c0 -56 -48 -95 -130 -96h-3c-83 0 -132 39 -132 96c0 39 25 68 62 82c-28 12 -49 34 -49 71c0 47 43 82 115 83h5c74 0 119 -35 119 -83c0 -37 -22 -59 -50 -71zM178 185c26 0 72 9 72 51c0 33 -32 50 -72 50c-39 0 -71 -17 -71 -50
s31 -50 71 -51zM179 34c49 0 84 23 84 61s-35 61 -84 61c-50 0 -84 -23 -84 -61s34 -61 84 -61z" />
    <glyph glyph-name="nine.dnom" horiz-adv-x="366" 
d="M173 100c-73 0 -127 45 -127 111c0 61 51 114 135 114c90 0 138 -57 138 -129v-29c0 -87 -39 -174 -147 -174h-4c-52 0 -86 20 -107 45l29 27c17 -15 41 -31 79 -31h3c66 0 93 56 99 108c-19 -25 -53 -42 -98 -42zM184 282c-51 0 -86 -31 -86 -71s35 -71 86 -71
c50 0 85 31 85 67c0 40 -31 75 -85 75z" />
    <glyph glyph-name="zero.numr" horiz-adv-x="418" 
d="M209 707c95 0 170 -74 170 -166s-75 -166 -170 -166s-170 74 -170 166s75 166 170 166zM209 657c-68 0 -115 -47 -115 -116s47 -116 115 -116c67 0 115 47 115 116s-48 116 -115 116z" />
    <glyph glyph-name="one.numr" horiz-adv-x="232" 
d="M185 382h-54v236l-54 -64l-31 23l103 123h36v-318z" />
    <glyph glyph-name="two.numr" horiz-adv-x="386" 
d="M339 381h-293v27l174 116c37 24 58 43 58 73c0 28 -29 60 -78 61h-6c-47 0 -86 -29 -105 -50l-35 32c35 36 84 67 149 67h6c76 -1 122 -50 122 -101c0 -53 -38 -83 -92 -116l-94 -59h194v-50z" />
    <glyph glyph-name="three.numr" horiz-adv-x="379" 
d="M313 667l-129 -100c10 1 24 2 44 0c70 -6 104 -41 104 -88c0 -56 -50 -104 -134 -104h-4c-76 0 -123 35 -148 66l32 29c14 -15 45 -47 108 -47c53 0 93 28 93 64c0 30 -30 54 -84 54c-31 -1 -44 -4 -57 -10l-22 17l130 105h-166v47h233v-33z" />
    <glyph glyph-name="four.numr" horiz-adv-x="374" 
d="M287 445v-63h-54v63h-187v26l207 229h34v-210h41v-45h-41zM234 624l-125 -134h125v134z" />
    <glyph glyph-name="five.numr" horiz-adv-x="379" 
d="M306 653h-182v-89c18 9 48 16 84 16c81 0 124 -40 124 -101c0 -56 -50 -103 -133 -104h-5c-76 0 -123 35 -148 66l32 29c14 -15 45 -47 108 -47c53 0 93 28 93 64s-30 60 -84 61c-34 0 -67 -6 -89 -20l-25 14v158h225v-47z" />
    <glyph glyph-name="six.numr" horiz-adv-x="366" 
d="M193 600c72 0 126 -45 126 -111c0 -61 -51 -114 -135 -114c-90 0 -138 57 -138 129v29c0 87 39 174 147 174h4c52 0 86 -20 107 -45l-29 -27c-17 15 -41 31 -78 31h-4c-65 0 -93 -56 -98 -108c19 25 53 42 98 42zM183 418c51 0 86 31 86 71s-35 71 -86 71
s-85 -31 -85 -67c0 -40 30 -75 85 -75z" />
    <glyph glyph-name="seven.numr" horiz-adv-x="334" 
d="M288 670l-187 -288h-55l175 271h-168v47h235v-30z" />
    <glyph glyph-name="eight.numr" horiz-adv-x="357" 
d="M248 553c38 -14 63 -43 63 -82c0 -57 -48 -96 -130 -96h-3c-83 0 -132 39 -132 96c0 39 25 68 62 82c-28 12 -49 34 -49 70c0 47 43 83 115 84h5c74 0 119 -36 119 -84c0 -36 -22 -58 -50 -70zM178 567c26 0 72 9 72 50c0 34 -32 51 -72 51c-39 0 -71 -17 -71 -51
c0 -33 31 -49 71 -50zM179 415c49 0 84 24 84 62c0 37 -35 61 -84 61c-50 0 -84 -24 -84 -61c0 -38 34 -62 84 -62z" />
    <glyph glyph-name="nine.numr" horiz-adv-x="366" 
d="M173 482c-73 0 -127 45 -127 111c0 61 51 114 135 114c90 0 138 -57 138 -129v-29c0 -87 -39 -174 -147 -174h-4c-52 0 -86 20 -107 45l29 27c17 -15 41 -31 79 -31h3c66 0 93 56 99 108c-19 -25 -53 -42 -98 -42zM184 664c-51 0 -86 -31 -86 -71s35 -71 86 -71
c50 0 85 31 85 67c0 40 -31 75 -85 75z" />
    <glyph glyph-name="asterisk" unicode="*" horiz-adv-x="455" 
d="M350 428l-36 -29l-87 121l-86 -121l-36 29l94 113l-136 37l12 43l134 -45l-4 141h45l-4 -141l134 45l12 -43l-136 -37z" />
    <glyph glyph-name="backslash" unicode="\" horiz-adv-x="453" 
d="M390 0h-49l-278 700h49z" />
    <glyph glyph-name="bullet" unicode="&#x2022;" horiz-adv-x="389" 
d="M195 434c73 0 132 -59 132 -131c0 -74 -59 -132 -132 -132s-132 58 -132 132c0 72 59 131 132 131z" />
    <glyph glyph-name="colon" unicode=":" horiz-adv-x="221" 
d="M111 384c26 0 48 -19 48 -44c0 -24 -22 -44 -48 -44c-27 0 -48 20 -48 44c0 25 21 44 48 44zM111 81c26 0 48 -20 48 -44c0 -25 -22 -44 -48 -44c-27 0 -48 19 -48 44c0 24 21 44 48 44z" />
    <glyph glyph-name="comma" unicode="," horiz-adv-x="267" 
d="M205 80l-90 -198h-52l60 198h82z" />
    <glyph glyph-name="ellipsis" unicode="&#x2026;" horiz-adv-x="630" 
d="M111 80c26 0 48 -19 48 -43c0 -25 -22 -44 -48 -44c-27 0 -48 19 -48 44c0 24 21 43 48 43zM315 80c26 0 48 -19 48 -43c0 -25 -22 -44 -48 -44c-27 0 -48 19 -48 44c0 24 21 43 48 43zM520 80c26 0 48 -19 48 -43c0 -25 -22 -44 -48 -44c-27 0 -48 19 -48 44
c0 24 21 43 48 43z" />
    <glyph glyph-name="exclam" unicode="!" horiz-adv-x="221" 
d="M150 700v-300l-9 -234h-60l-9 234v300h78zM111 80c26 0 48 -19 48 -43c0 -25 -22 -44 -48 -44c-27 0 -48 19 -48 44c0 24 21 43 48 43z" />
    <glyph glyph-name="exclamdown" unicode="&#xa1;" horiz-adv-x="221" 
d="M111 548c26 0 48 -19 48 -44c0 -24 -22 -44 -48 -44c-27 0 -48 20 -48 44c0 25 21 44 48 44zM72 -159v300l9 234h60l9 -235v-299h-78z" />
    <glyph glyph-name="numbersign" unicode="#" horiz-adv-x="695" 
d="M450 266h141l-10 -44h-141l-47 -222h-49l47 222h-142l-47 -222h-49l47 222h-137l9 44h138l32 154h-137l10 45h137l50 235h49l-50 -235h141l51 235h49l-50 -235h140l-9 -45h-141zM291 420l-32 -154h141l33 154h-142z" />
    <glyph glyph-name="period" unicode="." horiz-adv-x="221" 
d="M111 80c26 0 48 -19 48 -43c0 -25 -22 -44 -48 -44c-27 0 -48 19 -48 44c0 24 21 43 48 43z" />
    <glyph glyph-name="periodcentered" unicode="&#xb7;" horiz-adv-x="221" 
d="M111 347c28 0 48 -22 48 -48c0 -25 -20 -47 -48 -47s-48 22 -48 47c0 26 20 48 48 48z" />
    <glyph glyph-name="question" unicode="?" horiz-adv-x="654" 
d="M335 707h10c156 -3 247 -99 247 -221c0 -126 -97 -201 -234 -211v-87h-78v134c169 -6 238 58 238 155c0 92 -74 156 -176 157h-6c-99 0 -170 -45 -222 -120l-51 47c50 83 144 145 272 146zM318 80c26 0 48 -19 48 -43c0 -25 -22 -44 -48 -44c-27 0 -48 19 -48 44
c0 24 21 43 48 43z" />
    <glyph glyph-name="questiondown" unicode="&#xbf;" horiz-adv-x="654" 
d="M336 466c-27 0 -48 19 -48 44c0 24 21 43 48 43c26 0 48 -19 48 -43c0 -25 -22 -44 -48 -44zM320 -161h-10c-156 3 -247 100 -247 221c0 126 97 201 234 211v88h78v-134c-169 5 -238 -59 -238 -155c0 -92 74 -156 176 -158h5c100 1 171 45 223 120l51 -47
c-51 -82 -144 -144 -272 -146z" />
    <glyph glyph-name="quotedbl" unicode="&#x22;" horiz-adv-x="279" 
d="M109 538h-39l-7 162h53zM209 538h-39l-7 162h53z" />
    <glyph glyph-name="quotesingle" unicode="'" horiz-adv-x="178" 
d="M109 538h-39l-7 162h53z" />
    <glyph glyph-name="semicolon" unicode=";" horiz-adv-x="278" 
d="M167 384c26 0 48 -19 48 -44c0 -24 -22 -44 -48 -44c-27 0 -48 20 -48 44c0 25 21 44 48 44zM205 80l-90 -198h-52l60 198h82z" />
    <glyph glyph-name="slash" unicode="/" horiz-adv-x="453" 
d="M390 700l-278 -700h-49l278 700h49z" />
    <glyph glyph-name="underscore" unicode="_" horiz-adv-x="540" 
d="M477 -105h-414v39h414v-39z" />
    <glyph glyph-name="braceleft" unicode="{" horiz-adv-x="383" 
d="M320 677h-27c-27 0 -51 -23 -51 -56v-183c0 -62 -27 -114 -86 -130c59 -15 86 -63 86 -121v-198c0 -33 24 -56 51 -56h27v-73h-38c-68 0 -117 46 -118 121v190c-2 72 -37 101 -96 103h-5v68h5c59 2 95 30 96 102v185c1 75 50 121 118 121h38v-73z" />
    <glyph glyph-name="braceright" unicode="}" horiz-adv-x="383" 
d="M63 750h39c67 0 116 -46 117 -121l1 -185c0 -72 36 -100 95 -102h5v-68h-5c-58 -2 -94 -31 -95 -103l-1 -190c-1 -75 -50 -121 -117 -121h-39v73h27c27 0 52 23 52 56v198c0 58 27 106 85 121c-58 16 -86 68 -86 130v183c0 33 -24 56 -51 56h-27v73z" />
    <glyph glyph-name="bracketleft" unicode="[" horiz-adv-x="269" 
d="M141 -67h65v-73h-143v890h143v-73h-65v-744z" />
    <glyph glyph-name="bracketright" unicode="]" horiz-adv-x="269" 
d="M63 677v73h143v-890h-143v73h65v744h-65z" />
    <glyph glyph-name="parenleft" unicode="(" horiz-adv-x="380" 
d="M317 742v-74c-94 -68 -174 -209 -176 -359v-11c0 -152 81 -292 176 -364v-74c-142 77 -254 248 -254 438v11c2 187 113 360 254 433z" />
    <glyph glyph-name="parenright" unicode=")" horiz-adv-x="380" 
d="M63 668v74c141 -73 252 -246 254 -433v-11c0 -190 -112 -361 -254 -438v74c95 72 176 212 176 364v11c-2 150 -82 291 -176 359z" />
    <glyph glyph-name="emdash" unicode="&#x2014;" horiz-adv-x="666" 
d="M603 264h-540v49h540v-49z" />
    <glyph glyph-name="endash" unicode="&#x2013;" horiz-adv-x="498" 
d="M435 264h-372v49h372v-49z" />
    <glyph glyph-name="hyphen" unicode="-" horiz-adv-x="374" 
d="M311 264h-248v49h248v-49z" />
    <glyph glyph-name="guillemotleft" unicode="&#xab;" horiz-adv-x="436" 
d="M227 344l-90 -76l90 -75v-68l-164 143l164 145v-69zM373 344l-90 -76l90 -75v-68l-164 143l164 145v-69z" />
    <glyph glyph-name="guillemotright" unicode="&#xbb;" horiz-adv-x="436" 
d="M227 268l-164 -143v68l91 75l-91 76v69zM373 268l-164 -143v68l91 75l-91 76v69z" />
    <glyph glyph-name="guilsinglleft" unicode="&#x2039;" horiz-adv-x="290" 
d="M227 344l-90 -76l90 -75v-68l-164 143l164 145v-69z" />
    <glyph glyph-name="guilsinglright" unicode="&#x203a;" horiz-adv-x="290" 
d="M227 268l-164 -143v68l91 75l-91 76v69z" />
    <glyph glyph-name="quotedblbase" unicode="&#x201e;" horiz-adv-x="386" 
d="M205 80l-90 -198h-52l60 198h82zM323 80l-90 -198h-52l60 198h82z" />
    <glyph glyph-name="quotedblleft" unicode="&#x201c;" horiz-adv-x="386" 
d="M63 502l90 198h52l-60 -198h-82zM181 502l90 198h52l-60 -198h-82z" />
    <glyph glyph-name="quotedblright" unicode="&#x201d;" horiz-adv-x="386" 
d="M205 700l-90 -198h-52l60 198h82zM323 700l-90 -198h-52l60 198h82z" />
    <glyph glyph-name="quoteleft" unicode="&#x2018;" horiz-adv-x="267" 
d="M63 502l90 198h52l-60 -198h-82z" />
    <glyph glyph-name="quoteright" unicode="&#x2019;" horiz-adv-x="267" 
d="M205 700l-90 -198h-52l60 198h82z" />
    <glyph glyph-name="quotesinglbase" unicode="&#x201a;" horiz-adv-x="267" 
d="M205 80l-90 -198h-52l60 198h82z" />
    <glyph glyph-name="space" unicode=" " horiz-adv-x="318" 
 />
    <glyph glyph-name="cent" unicode="&#xa2;" horiz-adv-x="579" 
d="M337 436v-371c52 4 97 27 135 68l44 -47c-43 -52 -107 -86 -179 -91v-93h-49v94c-127 15 -225 122 -225 254s98 240 225 255v96h49v-95c72 -5 136 -39 179 -92l-44 -47c-38 41 -83 65 -135 69zM136 250c0 -97 66 -169 152 -183v367c-86 -14 -152 -87 -152 -184z" />
    <glyph glyph-name="currency" unicode="&#xa4;" horiz-adv-x="594" 
d="M529 478l-57 -57c67 -81 67 -199 0 -281l57 -56l-35 -35l-57 57c-81 -67 -199 -67 -280 0l-57 -57l-35 35l57 56c-66 82 -66 199 0 281l-57 57l35 34l57 -57c81 67 199 67 280 0l57 57zM213 161c62 -46 155 -34 201 35c46 70 29 157 -33 203s-154 34 -201 -35
c-46 -70 -29 -156 33 -203z" />
    <glyph glyph-name="dollar" unicode="$" horiz-adv-x="671" 
d="M609 199c0 -125 -114 -203 -253 -206v-46h-49v48c-119 10 -204 70 -244 150l51 47c28 -63 95 -114 193 -124v266l-8 1c-141 18 -219 70 -219 175c0 117 105 190 227 197v43h49v-44c90 -6 175 -49 229 -116l-51 -46c-44 51 -112 83 -178 89v-231l28 -4
c141 -18 225 -72 225 -199zM158 512c0 -61 49 -91 149 -104v226c-71 -5 -149 -44 -149 -122zM356 328v-262c97 2 175 51 175 133c0 79 -56 113 -156 127z" />
    <glyph glyph-name="Euro" unicode="&#x20ac;" horiz-adv-x="829" 
d="M502 66c84 0 159 33 213 90l51 -48c-65 -71 -159 -115 -264 -115c-166 0 -305 113 -345 267h-94v48h85c-1 14 -2 28 -2 42c0 15 1 30 3 45h-86v48h95c41 152 179 264 344 264c105 0 199 -45 264 -117l-51 -46c-54 56 -129 90 -213 90c-124 0 -227 -78 -264 -191h338
l-20 -48h-329c-2 -15 -3 -30 -3 -45c0 -14 1 -28 3 -42h250l-19 -48h-221c36 -116 140 -194 265 -194z" />
    <glyph glyph-name="sterling" unicode="&#xa3;" horiz-adv-x="678" 
d="M427 303h-202c24 -142 30 -193 -37 -230h396v-73h-520v53c113 46 112 90 85 250h-86v73h74c-6 34 -12 71 -18 113c-18 160 108 218 235 218h10c99 -1 193 -44 250 -117l-50 -46c-49 57 -129 90 -202 90h-11c-71 0 -172 -27 -154 -157c5 -37 11 -71 16 -101h214v-73z" />
    <glyph glyph-name="yen" unicode="&#xa5;" horiz-adv-x="736" 
d="M419 260h185v-65h-197v-195h-78v195h-196v65h184l-254 440h89l217 -366l216 366h89z" />
    <glyph glyph-name="approxequal" unicode="&#x2248;" horiz-adv-x="542" 
d="M63 286l42 61c38 58 101 52 145 26l61 -36c34 -19 77 -24 100 9l25 38h44l-42 -61c-38 -58 -101 -52 -145 -26l-61 35c-34 20 -77 25 -100 -8l-26 -38h-43zM480 253l-42 -62c-38 -57 -101 -52 -145 -26l-61 36c-34 20 -77 25 -100 -9l-26 -37h-43l42 61
c38 58 101 52 145 26l61 -36c34 -19 77 -24 100 9l25 38h44z" />
    <glyph glyph-name="asciitilde" unicode="~" horiz-adv-x="544" 
d="M482 328l-43 -70c-36 -59 -101 -52 -145 -26l-61 35c-34 20 -78 25 -100 -8l-23 -34h-47l43 70c35 59 101 52 145 26l61 -36c34 -20 77 -25 100 9l23 34h47z" />
    <glyph glyph-name="divide" unicode="&#xf7;" horiz-adv-x="540" 
d="M270 467c26 0 48 -19 48 -44c0 -24 -22 -43 -48 -43c-27 0 -48 19 -48 43c0 25 21 44 48 44zM477 234h-414v48h414v-48zM270 133c26 0 48 -19 48 -44c0 -24 -22 -44 -48 -44c-27 0 -48 20 -48 44c0 25 21 44 48 44z" />
    <glyph glyph-name="emptyset" unicode="&#x2205;" horiz-adv-x="657" 
d="M589 477l-63 -63c37 -45 59 -102 59 -164c0 -142 -115 -256 -257 -256c-62 0 -119 22 -163 58l-64 -64l-34 35l63 64c-36 44 -58 101 -58 163c0 142 114 257 256 257c62 0 119 -22 163 -59l63 63zM145 250c0 -43 14 -82 36 -113l260 261c-31 25 -71 39 -113 39
c-99 0 -183 -79 -183 -187zM512 250c0 44 -14 82 -37 113l-260 -260c32 -25 71 -39 113 -39c100 0 184 78 184 186z" />
    <glyph glyph-name="equal" unicode="=" horiz-adv-x="540" 
d="M477 328h-414v49h414v-49zM477 184h-414v49h414v-49z" />
    <glyph glyph-name="greater" unicode="&#x3e;" horiz-adv-x="463" 
d="M401 342l-338 -203v68l220 134l-220 135v68z" />
    <glyph glyph-name="greaterequal" unicode="&#x2265;" horiz-adv-x="463" 
d="M401 316l-338 -203v69l220 133l-220 136v67zM401 0h-338v49h338v-49z" />
    <glyph glyph-name="infinity" unicode="&#x221e;" horiz-adv-x="689" 
d="M185 327h6c45 0 102 -29 154 -96c51 67 108 96 153 96h6c71 0 122 -58 122 -135v-11c0 -76 -51 -134 -122 -134h-6c-45 0 -102 29 -153 95c-52 -66 -109 -95 -154 -95h-6c-71 0 -122 52 -122 134v11c0 77 51 135 122 135zM198 278h-4c-49 0 -81 -40 -81 -87v-8
c0 -54 32 -88 81 -88h4c38 0 78 30 119 93c-40 62 -83 90 -119 90zM495 278h-5c-36 0 -79 -29 -119 -91c41 -66 84 -92 119 -92h5c48 0 80 41 80 88v8c0 47 -32 87 -80 87z" />
    <glyph glyph-name="integral" unicode="&#x222b;" horiz-adv-x="347" 
d="M284 677h-14c-52 0 -78 -43 -75 -89l35 -574c7 -87 -49 -154 -142 -154h-25v73h14c52 0 78 44 76 90l-36 574c-7 87 49 153 142 153h25v-73z" />
    <glyph glyph-name="less" unicode="&#x3c;" horiz-adv-x="463" 
d="M401 476l-220 -135l220 -134v-68l-338 203l338 202v-68z" />
    <glyph glyph-name="lessequal" unicode="&#x2264;" horiz-adv-x="463" 
d="M401 451l-220 -136l220 -133v-69l-338 203l338 202v-67zM401 0h-338v49h338v-49z" />
    <glyph glyph-name="logicalnot" unicode="&#xac;" horiz-adv-x="540" 
d="M426 268h-363v49h414v-164h-51v115z" />
    <glyph glyph-name="minus" unicode="&#x2212;" horiz-adv-x="540" 
d="M477 268h-414v49h414v-49z" />
    <glyph glyph-name="multiply" unicode="&#xd7;" horiz-adv-x="453" 
d="M390 421l-129 -129l129 -129l-35 -34l-128 128l-129 -128l-35 34l129 129l-129 129l35 35l129 -129l128 129z" />
    <glyph glyph-name="notequal" unicode="&#x2260;" horiz-adv-x="540" 
d="M311 328l-38 -95h204v-49h-223l-49 -126h-49l49 126h-142v49h161l37 95h-198v49h217l48 123h50l-48 -123h147v-49h-166z" />
    <glyph glyph-name="partialdiff" unicode="&#x2202;" horiz-adv-x="667" 
d="M366 707h7c196 0 256 -184 221 -377l-12 -65c-27 -153 -149 -272 -307 -272c-155 0 -231 112 -209 239c25 139 146 234 281 234c93 0 156 -47 177 -110c21 137 -16 277 -162 278h-6c-54 0 -102 -22 -146 -58l-42 47c44 44 112 83 198 84zM351 399
c-104 0 -190 -72 -206 -167c-17 -94 44 -165 147 -165c113 0 191 81 207 175c15 85 -45 157 -148 157z" />
    <glyph glyph-name="percent" unicode="%" horiz-adv-x="820" 
d="M233 707c95 0 170 -74 170 -166s-75 -166 -170 -166s-170 74 -170 166s75 166 170 166zM639 700l-406 -700h-52l406 700h52zM233 657c-68 0 -115 -47 -115 -116s47 -116 115 -116c67 0 115 47 115 116s-48 116 -115 116zM588 325c95 0 170 -74 170 -166
s-75 -166 -170 -166s-170 74 -170 166s75 166 170 166zM588 275c-68 0 -115 -47 -115 -116s47 -116 115 -116c67 0 115 47 115 116s-48 116 -115 116z" />
    <glyph glyph-name="perthousand" unicode="&#x2030;" horiz-adv-x="1204" 
d="M233 707c95 0 170 -74 170 -166s-75 -166 -170 -166s-170 74 -170 166s75 166 170 166zM233 0h-52l406 700h52zM233 657c-68 0 -115 -47 -115 -116s47 -116 115 -116c67 0 115 47 115 116s-48 116 -115 116zM588 325c95 0 170 -74 170 -166s-75 -166 -170 -166
s-170 74 -170 166s75 166 170 166zM972 325c95 0 170 -74 170 -166s-75 -166 -170 -166s-170 74 -170 166s75 166 170 166zM588 275c-68 0 -115 -47 -115 -116s47 -116 115 -116c67 0 115 47 115 116s-48 116 -115 116zM972 275c-68 0 -115 -47 -115 -116s47 -116 115 -116
c67 0 115 47 115 116s-48 116 -115 116z" />
    <glyph glyph-name="plus" unicode="+" horiz-adv-x="540" 
d="M296 316h181v-48h-181v-183h-52v183h-181v48h181v183h52v-183z" />
    <glyph glyph-name="plusminus" unicode="&#xb1;" horiz-adv-x="540" 
d="M296 381h181v-48h-181v-126h-52v126h-181v48h181v126h52v-126zM477 113h-414v49h414v-49z" />
    <glyph glyph-name="product" unicode="&#x220f;" horiz-adv-x="735" 
d="M602 627v-731h-78v731h-314v-731h-78v731h-69v73h609v-73h-70z" />
    <glyph glyph-name="radical" unicode="&#x221a;" horiz-adv-x="669" 
d="M348 0h-49l-153 417l-83 -25v62l146 46l133 -387l217 587h47z" />
    <glyph glyph-name="summation" unicode="&#x2211;" horiz-adv-x="580" 
d="M518 628h-333l228 -345l-228 -345h333v-73h-455l268 418l-267 417l454 1v-73z" />
    <glyph glyph-name="lozenge" unicode="&#x25ca;" horiz-adv-x="523" 
d="M262 -23l-199 262l199 261l199 -261zM262 419l-139 -180l139 -181l139 181z" />
    <glyph glyph-name="ampersand" unicode="&#x26;" horiz-adv-x="684" 
d="M542 0l-56 57c-41 -40 -103 -61 -178 -61h-7c-146 1 -238 79 -238 201c0 86 50 146 125 173l-41 41c-29 32 -49 70 -49 121c0 103 86 170 204 170h8c111 -1 204 -68 204 -178v-10h-74c0 82 -68 117 -136 117c-65 0 -134 -33 -134 -113c0 -34 12 -59 34 -82l275 -284
c12 21 19 47 19 76h57c0 -47 -11 -89 -31 -125l98 -103h-80zM309 67c54 0 99 16 127 46l-211 216c-52 -18 -87 -59 -87 -119c0 -92 72 -143 171 -143z" />
    <glyph glyph-name="asciicircum" unicode="^" horiz-adv-x="528" 
d="M465 381h-52l-149 228l-149 -228h-52l201 308z" />
    <glyph glyph-name="at" unicode="@" horiz-adv-x="937" 
d="M468 662c248 0 406 -179 406 -400v-118c0 -86 -48 -130 -117 -131c-47 1 -87 20 -96 73l-2 46c-36 -72 -111 -120 -199 -120c-132 0 -233 106 -233 238s101 240 233 240c85 0 157 -47 193 -115l2 108h45v-355c0 -50 26 -66 58 -66s60 12 60 82v116
c0 206 -141 351 -350 351c-185 0 -349 -146 -349 -355c0 -210 164 -355 349 -355c61 0 122 17 175 47l37 -37c-62 -39 -134 -61 -212 -61c-224 0 -405 181 -405 406c0 224 181 406 405 406zM465 431c-96 0 -177 -77 -177 -181s81 -180 177 -180c97 0 178 76 178 180
s-81 181 -178 181z" />
    <glyph glyph-name="bar" unicode="|" horiz-adv-x="178" 
d="M116 -60h-53v760h53v-760z" />
    <glyph glyph-name="brokenbar" unicode="&#xa6;" horiz-adv-x="178" 
d="M116 374h-53v326h53v-326zM116 -60h-53v325h53v-325z" />
    <glyph glyph-name="copyright" unicode="&#xa9;" horiz-adv-x="659" 
d="M330 700c151 0 267 -124 267 -270c0 -147 -116 -270 -267 -270c-152 0 -267 123 -267 270c0 146 115 270 267 270zM329 666c-132 0 -231 -107 -231 -236c0 -130 99 -236 231 -236c133 0 232 106 232 236c0 129 -99 236 -232 236zM330 598c52 0 98 -24 129 -61l-28 -30
c-28 28 -61 45 -101 45c-63 0 -119 -53 -119 -122s56 -121 119 -121c40 0 72 19 100 45l29 -31c-31 -37 -77 -60 -129 -60c-92 0 -167 74 -167 167s75 168 167 168z" />
    <glyph glyph-name="dagger" unicode="&#x2020;" horiz-adv-x="397" 
d="M225 499h109v-48h-109v-511h-53v511h-109v48h109v201h53v-201z" />
    <glyph glyph-name="daggerdbl" unicode="&#x2021;" horiz-adv-x="397" 
d="M225 499h109v-48h-109v-261h109v-48h-109v-202h-53v202h-109v48h109v261h-109v48h109v201h53v-201z" />
    <glyph glyph-name="degree" unicode="&#xb0;" horiz-adv-x="369" 
d="M185 723c67 0 122 -55 122 -122c0 -68 -55 -122 -122 -122s-122 54 -122 122c0 67 55 122 122 122zM185 678c-42 0 -76 -34 -76 -77c0 -44 34 -77 76 -77s76 33 76 77c0 43 -34 77 -76 77z" />
    <glyph glyph-name="uni2116" unicode="&#x2116;" horiz-adv-x="1328" 
d="M978 707c142 0 257 -115 257 -257s-115 -256 -257 -256s-256 114 -256 256s114 257 256 257zM643 0h-43l-409 547v-547h-78v700h44l408 -547v547h78v-700zM978 637c-99 0 -183 -79 -183 -187s84 -186 183 -186c100 0 184 78 184 186s-84 187 -184 187zM742 66h473v-66
h-473v66z" />
    <glyph glyph-name="paragraph" unicode="&#xb6;" horiz-adv-x="618" 
d="M556 651h-49v-814h-53v814h-96v-814h-53v471c-132 0 -242 51 -242 192s109 200 244 200h249v-49z" />
    <glyph glyph-name="registered" unicode="&#xae;" horiz-adv-x="659" 
d="M330 700c151 0 267 -124 267 -270c0 -147 -116 -270 -267 -270c-152 0 -267 123 -267 270c0 146 115 270 267 270zM329 666c-132 0 -231 -107 -231 -236c0 -130 99 -236 231 -236c133 0 232 106 232 236c0 129 -99 236 -232 236zM191 590h166c91 0 120 -51 120 -105
c0 -47 -27 -86 -88 -93l94 -121h-51l-91 114h-103v-114h-47v319zM237 546v-120h123c50 0 70 26 70 59c0 34 -20 61 -70 61h-123z" />
    <glyph glyph-name="section" unicode="&#xa7;" horiz-adv-x="549" 
d="M266 624h13c75 0 156 -36 196 -93l-42 -39c-33 45 -101 73 -153 73h-9c-67 -1 -119 -30 -119 -80c0 -33 12 -64 91 -72l58 -6c95 -4 185 -43 185 -148c0 -43 -19 -78 -50 -102c25 -22 35 -51 35 -83c0 -90 -85 -142 -187 -143h-14c-74 0 -155 36 -196 93l42 39
c33 -45 102 -73 153 -73h8c68 1 121 30 121 80c0 33 -13 64 -92 72l-58 6c-84 4 -185 37 -185 148c0 43 19 78 50 102c-25 22 -34 51 -34 83c0 90 84 142 187 143zM177 365c-25 -14 -41 -36 -41 -66c0 -61 52 -81 108 -87l58 -6c29 -3 53 -9 71 -16c25 14 41 36 41 66
c0 61 -52 81 -109 87l-57 6c-30 3 -53 9 -71 16z" />
    <glyph glyph-name="trademark" unicode="&#x2122;" horiz-adv-x="762" 
d="M227 652v-262h-50v262h-114v48h278v-48h-114zM699 390h-50v225l-115 -127l-114 127v-225h-50v310h29l135 -150l136 150h29v-310z" />
    <glyph glyph-name="acute" unicode="&#xb4;" horiz-adv-x="286" 
d="M121 601h-58l72 117h89z" />
    <glyph glyph-name="breve" unicode="&#x2d8;" horiz-adv-x="412" 
d="M297 718h52c0 -74 -63 -130 -143 -130s-143 56 -143 130h53c0 -44 39 -77 90 -77s91 33 91 77z" />
    <glyph glyph-name="caron" unicode="&#x2c7;" horiz-adv-x="405" 
d="M236 597h-67l-106 120h63l77 -63l76 64h63z" />
    <glyph glyph-name="cedilla" unicode="&#xb8;" horiz-adv-x="252" 
d="M121 0l-11 -43c38 12 80 -6 80 -58c0 -54 -60 -84 -127 -44v27c38 -26 78 -13 78 18c0 29 -24 44 -69 25l21 75h28z" />
    <glyph glyph-name="circumflex" unicode="&#x2c6;" horiz-adv-x="405" 
d="M279 598l-76 64l-77 -64h-63l106 120h67l106 -120h-63z" />
    <glyph glyph-name="dieresis" unicode="&#xa8;" horiz-adv-x="423" 
d="M108 641c-25 0 -45 18 -45 41s20 41 45 41s45 -18 45 -41s-20 -41 -45 -41zM315 641c-25 0 -45 18 -45 41s20 41 45 41s45 -18 45 -41s-20 -41 -45 -41z" />
    <glyph glyph-name="dotaccent" unicode="&#x2d9;" horiz-adv-x="215" 
d="M108 641c-25 0 -45 18 -45 41s20 41 45 41s45 -18 45 -41s-20 -41 -45 -41z" />
    <glyph glyph-name="grave" unicode="`" horiz-adv-x="286" 
d="M151 718l73 -117h-59l-102 117h88z" />
    <glyph glyph-name="hungarumlaut" unicode="&#x2dd;" horiz-adv-x="424" 
d="M121 601h-58l72 117h89zM258 601h-58l72 117h89z" />
    <glyph glyph-name="macron" unicode="&#xaf;" horiz-adv-x="380" 
d="M317 663h-254v55h254v-55z" />
    <glyph glyph-name="ogonek" unicode="&#x2db;" horiz-adv-x="232" 
d="M141 0h28c-52 -19 -70 -42 -70 -68c0 -33 28 -49 60 -49h9v-47h-6c-50 0 -99 24 -99 79c0 38 26 66 78 85z" />
    <glyph glyph-name="ring" unicode="&#x2da;" horiz-adv-x="291" 
d="M145 723c46 0 83 -38 83 -82c0 -47 -37 -84 -83 -84s-82 37 -82 84c0 44 36 82 82 82zM145 683c-25 0 -41 -21 -41 -43c0 -23 16 -43 41 -43c24 0 42 20 42 43c0 22 -18 43 -42 43z" />
    <glyph glyph-name="tilde" unicode="&#x2dc;" horiz-adv-x="418" 
d="M355 700l-19 -51c-12 -38 -33 -57 -63 -59c-21 -1 -38 8 -52 20l-39 36c-11 9 -24 15 -37 14c-19 -1 -29 -13 -36 -37l-7 -23h-39l19 51c12 37 33 57 62 58c22 2 39 -7 53 -19l39 -36c11 -9 22 -15 35 -14c20 0 30 12 38 37l8 23h38z" />
    <glyph glyph-name="commaaccentcomb" unicode="&#x326;" horiz-adv-x="0" 
d="M121 -250h-58l72 117h89z" />
    </font>
</defs>
</svg>
